<?xml version="1.0" encoding="UTF-8" standalone="no"?>
<!DOCTYPE svg PUBLIC "-//W3C//DTD SVG 1.1//EN" "http://www.w3.org/Graphics/SVG/1.1/DTD/svg11.dtd">
<svg xmlns="http://www.w3.org/2000/svg">
<metadata>Generated by IcoMoon</metadata>
<defs>
<font id="Educ-Font" horiz-adv-x="1024">
<font-face units-per-em="1024" ascent="877.8572825024438" descent="-146.14271749755622"/>
<missing-glyph horiz-adv-x="1024"/>
<glyph unicode=" " horiz-adv-x="256.25024437927664" d=""/>
<glyph unicode="" glyph-name="observation_attention_parents" d="M1023.996-125.776v146.163c0.066 50.143-40.573 90.712-90.712 90.712h-290.295c-50.077 0-90.712-40.573-90.712-90.712v-146.163h471.723zM471.786-125.776v146.163c0.066 50.143-40.573 90.712-90.712 90.712h-290.362c-50.077 0-90.712-40.639-90.712-90.777v-146.163h471.789zM798.985 431.939c-33.429-61.677-87.175-110.769-152.195-138.363 0-0.853-0.066-1.704-0.066-2.624 0-78.061 63.316-141.378 141.378-141.378s141.378 63.316 141.378 141.378c0 74.393-57.481 135.415-130.498 140.987zM252.148 431.351c-5.308 0.589-10.747 0.918-16.253 0.918-78.061 0-141.378-63.316-141.378-141.378s63.316-141.378 141.378-141.378 141.378 63.316 141.378 141.378c0 5.44-0.33 10.747-0.918 15.994-52.371 28.775-95.628 72.033-124.206 124.47zM524.811 842.641c-145.051 0-262.701-117.585-262.701-262.701s117.585-262.701 262.701-262.701 262.701 117.585 262.701 262.701-117.65 262.701-262.701 262.701zM484.831 772.899h79.964v-217.409h-79.964v217.409zM567.353 389.791h-85.075v85.075h85.075v-85.075z"/>
<glyph unicode="" glyph-name="encouragement" d="M1008.836 865.6h-235.2c-5.6 0-10.72-2.72-13.76-7.36l-215.84-301.44 135.68-208.48 335.52 505.12c3.52 5.28-0.16 12.16-6.4 12.16zM519.396 366.72c13.92 0 27.52-0.96 40.8-2.88 20.48-2.88 35.040 19.2 24 36.8l-290.24 464.96h-286.56l332.16-532.16c7.040-11.2 21.76-14.72 33.12-7.84 42.72 26.080 92.96 41.12 146.72 41.12zM512.036 299.52c-123.84 0-224.16-100.32-224.16-224.16s100.32-224.16 224.16-224.16 224.16 100.32 224.16 224.16-100.32 224.16-224.16 224.16zM512.036-34.4c-60.64 0-109.76 49.12-109.76 109.76s49.12 109.76 109.76 109.76 109.76-49.12 109.76-109.76-49.12-109.76-109.76-109.76z"/>
<glyph unicode="" glyph-name="cantine_accompagnement" d="M814.7 494.183l-266.857 357.903c-8.372 11.511-21.976 18.314-36.104 18.314 0 0 0 0 0 0-14.128 0-27.732-6.802-36.104-18.314l-247.497-332.787c-8.372-11.511-17.79-23.023-26.686-34.534l-1.57-2.093c-54.418-69.592-82.673-153.312-82.673-241.741 0-217.149 176.858-394.53 394.007-394.53 0 0 0.523 0 0.523 0 105.173 0 204.067 40.813 278.892 115.638s116.161 173.719 116.161 279.415c0 120.347-88.429 246.974-92.092 252.73zM741.968 10.7c-61.743-61.743-143.37-95.231-230.23-95.231 0 0-0.523 0-0.523 0-179.475 0.523-325.461 146.51-325.461 325.985 0 73.255 23.546 142.324 68.546 199.881l1.57 2.093c8.895 11.511 18.314 23.546 27.209 35.581l228.137 307.148 247.497-331.217c4.709-6.802 79.011-116.685 79.011-212.963 0-87.906-34.011-169.533-95.755-231.276zM659.818 335.639l-116.685-116.685v139.708l76.394 76.394c12.558 12.558 12.558 33.488 0 46.569-12.558 12.558-33.488 12.558-46.569 0l-30.348-30.348v115.638c0 18.314-14.651 32.965-32.965 32.965s-32.965-14.651-32.965-32.965v-116.685l-30.348 30.348c-12.558 12.558-33.488 12.558-46.569 0-12.558-12.558-12.558-33.488 0-46.569l76.918-76.918v-139.184l-112.499 112.499c-12.558 12.558-33.488 12.558-46.569 0-12.558-12.558-12.558-33.488 0-46.569l158.545-158.545v-88.952c0-18.314 14.651-32.965 32.965-32.965s32.965 14.651 32.965 32.965v89.476l163.254 163.254c12.558 12.558 12.558 33.488 0 46.569-11.511 12.558-32.441 12.558-45.523 0z"/>
<glyph unicode="" glyph-name="plat" d="M1012.736-33.28h-1001.472c-6.144 0-11.264 5.12-11.264 11.264v96.256c0 6.144 5.12 11.264 11.264 11.264h1001.472c6.144 0 11.264-5.12 11.264-11.264v-96.256c0-6.144-5.12-11.264-11.264-11.264zM580.096 659.456v16.896c0 40.448-33.28 73.728-73.728 73.728s-73.728-33.28-73.728-73.728v-18.432c-238.080-36.864-421.888-237.568-432.128-483.84-0.512-11.776 9.216-22.016 20.992-22.016h979.968c11.776 0 21.504 9.728 20.992 22.016-10.24 249.344-199.168 452.608-442.368 485.376zM473.6 662.528v13.312c0 17.92 14.848 32.768 32.768 32.768s32.768-14.848 32.768-32.768v-12.8c-9.216 0.512-18.432 0.512-27.648 0.512-12.8 0.512-25.088 0-37.888-1.024z"/>
<glyph unicode="" glyph-name="cantine_dessert" d="M963.887 435.467l-496.616 388.494c-5.3 4.24-12.19 5.83-19.080 5.3l-2.65-0.53c-214.652-28.62-307.934-144.162-348.744-235.852-41.34-93.282-37.1-179.672-36.040-192.922v-512.516h903.13v545.906h-1.59l1.59 2.12zM155.627 566.907c46.64 105.472 138.862 170.662 274.014 194.512 6.89 1.060 14.31-0.53 19.61-5.3l412.344-322.244h-736.708c1.060 30.21 7.42 80.56 30.74 133.032zM898.695-47.899h-773.808v107.592h773.808v-107.592zM898.695 257.385h-773.808v111.832h773.808v-111.832zM494.301 599.239c0-43.907-35.595-79.5-79.5-79.5s-79.5 35.595-79.5 79.5c0 43.907 35.595 79.5 79.5 79.5s79.5-35.595 79.5-79.5z"/>
<glyph unicode="" glyph-name="cantine_fromage" d="M957.099 434.533l-489.083 382.596c-5.487 4.39-12.077 6.039-18.662 4.941h-2.747c-211.331-27.993-303.549-142.171-343.62-232.74-40.622-91.669-36.226-176.754-35.681-189.923v-505.004h889.246v537.938h-1.097l1.649 2.195zM161.169 564.081c46.109 103.744 136.678 168.518 270.069 191.572 7.136 1.097 13.721-0.551 19.214-4.941l129.543-101.549c-20.857-9.883-34.032-24.155-34.032-39.525 0-31.291 53.245-55.992 118.568-55.992 12.077 0 23.603 1.097 34.583 2.747l156.989-122.957h-725.121c1.097 29.090 7.136 78.497 30.189 130.645zM130.975-41.375v410.591h762.444v-118.568c-60.929-1.097-110.334-51.050-110.334-111.977 0-61.479 48.855-110.88 110.334-111.977v-68.063h-762.444zM605.24 235.825c0-47.899-38.831-86.731-86.731-86.731s-86.731 38.831-86.731 86.731c0 47.899 38.831 86.731 86.731 86.731s86.731-38.831 86.731-86.731zM329.684 87.621c0-38.5-31.212-69.712-69.712-69.712s-69.712 31.212-69.712 69.712c0 38.5 31.212 69.712 69.712 69.712s69.712-31.212 69.712-69.712zM416.966 551.452c0-28.195-39.321-51.050-87.828-51.050s-87.828 22.855-87.828 51.050c0 28.195 39.321 51.050 87.828 51.050s87.828-22.855 87.828-51.050z"/>
<glyph unicode="" glyph-name="casier_trait" d="M551.495 212.627v-50.266c0-20.107-17.234-37.341-38.777-37.341-20.107 0-38.777 15.798-38.777 37.341v48.83c-18.67 11.489-30.16 33.032-30.16 56.011 0 37.341 30.16 67.501 67.501 67.501s67.501-30.16 67.501-67.501c1.436-24.415-10.053-43.086-27.288-54.575zM785.593 517.098c0-18.67-12.926-35.905-27.288-35.905h-492.612c-14.362 0-27.288 15.798-27.288 35.905v101.969c0 18.67 11.489 35.905 27.288 35.905h494.048c14.362 0 27.288-15.798 27.288-35.905v-101.969zM906.233-84.663h-787.029c-33.032 0-58.884 25.851-58.884 58.884v788.466c0 33.032 25.851 58.884 58.884 58.884h788.466c33.032 0 58.884-25.851 58.884-58.884v-788.466c0-33.032-27.288-58.884-60.32-58.884zM129.257-15.726h766.923v766.923h-766.923v-766.923z"/>
<glyph unicode="" glyph-name="alerte_oraux" horiz-adv-x="1108" d="M1066.239-153.6c-9.039 0-18.078 2.955-25.552 8.691l-202.158 157.311h-719.286c-62.229 0-112.986 50.757-112.986 112.986v632.026c0 62.229 50.757 112.986 112.986 112.986h820.278c62.229 0 112.986-50.757 112.986-112.986v-627.159l54.233-232.925c3.998-17.209-3.303-34.939-18.078-44.325-6.779-4.519-14.601-6.605-22.423-6.605zM119.244 787.312c-16.513 0-29.898-13.384-29.898-30.072v-631.852c0-16.513 13.384-30.072 29.898-30.072h733.539c9.213 0 18.252-3.129 25.552-8.691l120.982-94.039-28.681 123.415c-0.695 3.129-1.043 6.258-1.043 9.387v632.026c0 16.513-13.384 30.072-29.898 30.072l-820.452-0.174zM719.286 726.473h127.24v-356.34h-127.24v356.34zM719.286 300.256h127.24v-127.24h-127.24v127.24zM594.48 195.613c-14.254-17.556-31.462-26.247-51.278-26.247h-290.808c-19.816 0-37.025 8.691-51.278 26.247-14.254 18.252-21.38 39.806-21.38 64.315 0 24.683 1.564 47.628 4.693 69.182 3.129 20.685 8.691 40.849 16.687 60.839 7.996 19.816 19.468 35.286 34.591 46.411 8.344 6.258 17.556 10.951 27.464 13.906 14.775 4.346 30.593 0.869 42.587-8.865 25.9-20.859 56.493-31.288 92.127-31.288 35.46 0 66.227 10.429 92.127 31.288 11.994 9.56 27.986 13.211 42.587 8.865 9.908-2.955 19.121-7.648 27.464-13.906 15.123-11.125 26.595-26.595 34.591-46.411s13.558-40.153 16.687-60.839c3.129-21.38 4.693-44.499 4.693-69.182-0.174-24.509-7.301-45.89-21.554-64.315zM490.707 502.066c-25.378-25.378-56.493-38.068-92.996-38.068s-67.618 12.689-92.996 38.068c-25.378 25.378-38.068 56.493-38.068 92.996s12.689 67.444 38.068 92.996c25.552 25.378 56.493 38.068 93.17 38.068 36.503 0 67.444-12.689 92.996-38.068 25.378-25.378 38.068-56.493 38.068-92.996 0-36.677-12.689-67.618-38.241-92.996z"/>
<glyph unicode="" glyph-name="coller_liste" horiz-adv-x="958" d="M72.041-153.6c-20.513 0-37.395 6.338-51.528 19.364-13.805 12.738-20.513 27.815-20.513 46.072v893.374c0 18.010 6.708 33.087 20.513 45.826 14.133 13.026 30.974 19.364 51.528 19.364h542.379c21.159-0.375 41.218-4.634 59.641-12.092l-1.118 0.4c21.518-8.451 38.851-18.646 51.159-30.236l188.533-173.99c12.513-11.323 23.077-27.077 31.446-46.872l0.123-0.287 0.144-0.287c8.862-18.462 13.354-35.918 13.354-52.082v-643.118c0-18.256-6.708-33.333-20.513-46.072s-31.262-19.364-51.528-19.364zM104.862-58.913h747.938v548.41h-238.379c-20.513 0-37.395 6.338-51.528 19.364-13.805 12.738-20.513 27.733-20.513 45.846v221.005h-437.538zM647.221 584.185h195.856l-195.856 180.328zM241.415 176.821h464.595v-108.882h-464.595v108.882zM241.415 395.446h464.595v-108.882h-464.595v108.882z"/>
<glyph unicode="" glyph-name="double_check_vide" d="M751.616 719.872l-424.96-423.936c-9.216-9.216-20.48-13.312-33.792-13.312s-24.576 4.096-33.792 13.312l-245.76 245.76c-9.216 9.216-13.312 20.48-13.312 33.792s4.096 24.576 13.312 33.792l68.608 66.56c9.216 9.216 20.48 13.312 33.792 13.312s24.576-4.096 33.792-13.312l144.384-145.408 323.584 323.584c9.216 9.216 20.48 13.312 33.792 13.312s24.576-4.096 33.792-13.312l66.56-67.584c9.216-9.216 14.336-20.48 14.336-33.792-1.024-12.288-5.12-23.552-14.336-32.768zM573.44-153.6c-18.432 0-34.816 7.168-47.104 19.456l-224.256 225.28c-12.288 13.312-18.432 28.672-18.432 45.056 0 18.432 7.168 34.816 19.456 47.104l61.44 61.44c13.312 12.288 28.672 18.432 45.056 18.432 19.456 0 34.816-7.168 47.104-19.456l114.688-115.712 278.528 278.528c12.288 12.288 28.672 19.456 46.080 19.456 18.432 0 34.816-7.168 47.104-19.456l59.392-60.416c12.288-11.264 19.456-27.648 19.456-45.056 2.048-17.408-3.072-33.792-16.384-48.128l-1.024-1.024-385.024-386.048c-12.288-12.288-28.672-19.456-46.080-19.456zM335.872 121.856l224.256-224.256c1.024-1.024 4.096-5.12 13.312-5.12 5.12 0 10.24 2.048 14.336 6.144l385.024 385.024c5.12 6.144 5.12 9.216 5.12 12.288v3.072c0 8.192-4.096 12.288-5.12 13.312l-1.024 1.024-61.44 62.464c-1.024 1.024-4.096 5.12-13.312 5.12-5.12 0-10.24-2.048-14.336-6.144l-310.272-312.32-148.48 149.504c-2.048 2.048-5.12 5.12-13.312 5.12-3.072 0-8.192-1.024-14.336-6.144l-61.44-61.44c-1.024-1.024-5.12-4.096-5.12-13.312 0-3.072 0-8.192 6.144-14.336z"/>
<glyph unicode="" glyph-name="dernieres_evals" d="M747.556 114.089c6.676-13.508 14.611-25.152 23.953-35.497l-0.117 0.145v204.783c-9.227-10.227-17.174-21.846-23.444-34.471l-0.392-0.888zM798.068 55.189c6.856-4.83 14.687-9.362 22.899-13.181l0.936-0.392v278.994c-9.156-4.212-16.979-8.742-24.326-13.909l0.482 0.32zM848.584 32.354c6.833-1.76 14.947-3.161 23.272-3.865l0.561-0.037v305.339c-8.887-0.765-17.009-2.129-24.904-4.134l1.055 0.227zM899.115 28.528c8.907 0.777 17.015 2.182 24.904 4.196l-1.055-0.227v297.167c-6.818 1.798-14.942 3.202-23.25 3.937l-0.588 0.042zM949.672 42.021c9.156 4.278 16.968 8.866 24.322 14.074l-0.475-0.31v250.665c-6.875 4.898-14.695 9.486-22.919 13.372l-0.93 0.392zM1000.159 282.532v-202.787c9.28 10.437 17.235 22.359 23.449 35.278l0.392 0.93v130.386c-6.598 13.833-14.57 25.76-23.985 36.353l0.145-0.151zM629.856 285.59l-1.479 1.581c-7.75 0.641-13.991 6.402-15.337 13.868l-0.021 0.104q-1.964 1.556-3.978 3.061l-0.777 0.561c-20.605 15.262-45.736 25.524-73.073 28.583l-0.682 0.062c-5.005 0.569-10.809 0.892-16.678 0.892v0c-0.062 0-0.145 0-0.216 0-24.983 0-48.546-6.007-69.351-16.637l0.856 0.392c4.319-3.146 7.089-8.171 7.089-13.868 0-9.445-7.665-17.091-17.091-17.091-8.246 0-15.148 5.849-16.754 13.62l-0.021 0.104c-10.186-8.171-19.057-17.315-26.722-27.426l-0.27-0.392c7.627-1.835 13.207-8.578 13.207-16.645 0-9.445-7.665-17.091-17.091-17.091-5.105 0-9.682 2.232-12.806 5.766l-0.021 0.021c-4.98-10.478-8.961-22.671-11.359-35.433l-0.145-0.937c-1.609-8.334-2.543-17.93-2.543-27.75 0-55.573 29.58-104.223 73.87-131.084l0.682-0.392c22.39-13.662 49.496-21.731 78.472-21.731 0.076 0 0.152 0 0.229 0h2.629c3.121 4.443 8.233 7.324 14.001 7.324 4.548 0 8.677-1.78 11.735-4.687l-0.015 0.014c60.253 11.669 107.351 57.351 120.881 115.896l0.196 1.032c-4.196 3.155-6.882 8.123-6.882 13.703 0 7.087 4.307 13.154 10.437 15.739l0.104 0.042q0 2.065 0 4.154c0 0.047 0 0.104 0 0.145 0 40.374-15.662 77.108-41.24 104.42l0.075-0.086zM391.446 144.064c-9.445 0-17.114 7.668-17.114 17.114s7.668 17.114 17.114 17.114c9.445 0 17.114-7.668 17.114-17.114v0c0-9.445-7.668-17.114-17.114-17.114v0zM439.129 96.38c-0.015 0-0.021 0-0.021 0-9.445 0-17.091 7.653-17.091 17.091 0 0.017 0 0.021 0 0.021v-0.002 0.561c0.316 9.197 7.849 16.513 17.091 16.513 9.445 0 17.091-7.665 17.091-17.091s-7.665-17.091-17.091-17.091c-0.002 0-0.005 0-0.006 0v0zM439.129 191.739c-0.015 0-0.021 0-0.021 0-9.445 0-17.091 7.653-17.091 17.091 0 0.017 0 0.021 0 0.021v-0.002 0.561c0.316 9.197 7.849 16.513 17.091 16.513 9.445 0 17.091-7.665 17.091-17.091s-7.665-17.091-17.091-17.091c-0.002 0-0.005 0-0.006 0v0zM486.818 48.7c-9.445 0-17.114 7.668-17.114 17.114s7.668 17.114 17.114 17.114c9.445 0 17.114-7.668 17.114-17.114v0c0-9.445-7.668-17.114-17.114-17.114v0zM486.818 144.064c-9.445 0-17.114 7.668-17.114 17.114s7.668 17.114 17.114 17.114c9.445 0 17.114-7.668 17.114-17.114v0c0-9.445-7.668-17.114-17.114-17.114v0zM486.818 239.424c-9.445 0-17.114 7.668-17.114 17.114s7.668 17.114 17.114 17.114c9.445 0 17.114-7.668 17.114-17.114v0c0-9.445-7.668-17.114-17.114-17.114v0zM534.49 96.38c-0.015 0-0.021 0-0.021 0-9.445 0-17.091 7.653-17.091 17.091 0 0.017 0 0.021 0 0.021v-0.002 0.561c0.316 9.197 7.849 16.513 17.091 16.513 9.445 0 17.091-7.665 17.091-17.091s-7.665-17.091-17.091-17.091c-0.002 0-0.005 0-0.006 0v0zM534.49 191.739c-0.015 0-0.021 0-0.021 0-9.445 0-17.091 7.653-17.091 17.091 0 0.017 0 0.021 0 0.021v-0.002 0.561c0.316 9.197 7.849 16.513 17.091 16.513 9.445 0 17.091-7.665 17.091-17.091s-7.665-17.091-17.091-17.091c-0.002 0-0.005 0-0.006 0v0zM534.49 287.116c-0.015 0-0.021 0-0.021 0-9.445 0-17.091 7.653-17.091 17.091 0 0.017 0 0.021 0 0.021v-0.002 0.561c0.316 9.197 7.849 16.513 17.091 16.513 9.445 0 17.091-7.665 17.091-17.091s-7.665-17.091-17.091-17.091c-0.002 0-0.005 0-0.006 0v0zM582.176 48.7c-9.445 0-17.114 7.668-17.114 17.114s7.668 17.114 17.114 17.114c9.445 0 17.114-7.668 17.114-17.114v0c0-9.445-7.668-17.114-17.114-17.114v0zM582.176 144.064c-9.445 0-17.114 7.668-17.114 17.114s7.668 17.114 17.114 17.114c9.445 0 17.114-7.668 17.114-17.114v0c0-9.445-7.668-17.114-17.114-17.114v0zM582.176 239.424c-9.445 0-17.114 7.668-17.114 17.114s7.668 17.114 17.114 17.114c9.445 0 17.114-7.668 17.114-17.114v0c0-9.445-7.668-17.114-17.114-17.114v0zM629.856 96.38c-0.015 0-0.021 0-0.021 0-9.445 0-17.091 7.653-17.091 17.091 0 0.017 0 0.021 0 0.021v-0.002 0.561c0.316 9.197 7.849 16.513 17.091 16.513 9.445 0 17.091-7.665 17.091-17.091s-7.665-17.091-17.091-17.091c-0.002 0-0.005 0-0.006 0v0zM629.856 191.739c-0.015 0-0.021 0-0.021 0-9.445 0-17.091 7.653-17.091 17.091 0 0.017 0 0.021 0 0.021v-0.002 0.561c0.316 9.197 7.849 16.513 17.091 16.513 9.445 0 17.091-7.665 17.091-17.091s-7.665-17.091-17.091-17.091c-0.002 0-0.005 0-0.006 0v0zM306.407 181.116c0-84.621-68.594-153.203-153.203-153.203s-153.203 68.594-153.203 153.203c0 84.621 68.594 153.203 153.203 153.203s153.203-68.594 153.203-153.203zM874.772 499.776l-8.039 6.631c-2.653 2.17-5.305 4.443-8.149 6.468l-16.72 12.498-17.299 11.842c-1.426 1.013-2.914 1.925-4.402 2.869l-13.413 8.37c-21.349 13.207-46.315 26.061-72.275 37.030l-3.68 1.384c-22.548 9.681-49.911 18.911-78.086 26.082l-4.029 0.876c-56.328 14.053-115.132 20.021-173.859 19.199-3.686 0-7.337-0.14-11.015-0.229l-11.015-0.351c-7.337-0.31-14.652-0.803-22.023-1.212s-14.652-1.137-21.985-1.837l-10.974-1.137c-3.661-0.37-7.333-0.765-10.974-1.249q-19.142-2.335-38.181-5.476l-17.505 67.537-105.707-200.439 200.53-61.32-13.703 64.771c1.925 0.765 3.865 1.504 5.79 2.244 2.914 1.148 5.849 2.205 8.774 3.245l8.811 3.162c5.89 2.047 11.809 3.978 17.754 5.969s11.925 3.7 17.917 5.435l9.030 2.513c2.997 0.847 6.019 1.716 9.042 2.436 48.421 12.548 98.395 19.665 149.070 19.489 54.353-0.145 106.652-8.742 155.701-24.564l-3.617 1.013 14.033-4.642c1.556-0.517 3.137-1.013 4.654-1.633l18.538-7.002 18.301-7.792c3.099-1.261 6.055-2.749 9.067-4.169l9.031-4.319c27.364-13.578 50.283-27.012 72.195-41.809l-2.209 1.394c-18.538 20.15-37.924 38.688-58.398 55.946l-0.951 0.776z"/>
<glyph unicode="" glyph-name="communiquer" d="M948.3 358.4h0.4l-7.8 7.8c-54.5 54.1-126.4 82-213.6 83h-0.2c-6.9-0.1-69.2-1.8-135.9-33.7-38.4-18.3-71.2-43.2-97.5-73.8-32.6-38-55.4-85-67.7-139.9v-0.2c-3.2-17.5-4.9-35.6-4.9-53.7 0-40.6 8.1-80 24.1-117.1 15.6-36.6 37.2-68.9 64.2-95.9 26.8-26.8 59.1-48.4 95.9-64.2 37.2-16 76.6-24.1 117.1-24.1 34.8 0 68.8 6 101.2 17.7 32.8 11.7 62.9 28.6 89.5 50.1l0.1 0.1c3.7 3.2 5.9 7.3 6.4 11.9 0.5 4.3-0.8 8.7-3.9 12.8l-15.7 19.1c-2.7 3.7-6.8 6.1-11.5 6.6h-0.6c-4.7 0-8.9-1.6-12.5-4.7-44.5-36.1-96-54.4-153.1-54.4-32.8 0-64.5 6.5-94.1 19.3-29.8 12.9-55.7 30.2-77.1 51.6s-38.7 47.3-51.6 77.1c-12.8 29.6-19.3 61.3-19.3 94.1 0 32.7 6.5 64.3 19.3 94.1 12.9 29.8 30.2 55.7 51.6 77.1s47.3 38.7 77.1 51.6c29.7 12.8 61.3 19.3 94.1 19.3 73.5 0 132.9-22.1 176.5-65.7 43.6-43.7 65.7-103.1 65.7-176.5 0-19.4-3-36.5-8.9-50.8-5.9-14.7-12.9-25.8-20.7-32.9-8.1-7.4-17.7-13.5-28.7-18.2-10.7-4.8-19.6-7.8-26.5-8.8-7.4-1.1-14.6-1.8-21.4-2.2-6.7 0-11.5 1.3-13.6 3.6l-0.1 0.1c-0.8 0.8-3.2 4.1-3.2 16.2 0 5.6 0.6 11.6 1.7 17.6l46.3 237.3v0.3c0.7 4.9-0.7 7.8-2.1 9.5-1.3 2-4.5 6.6-9.2 6.6h-45.2c-3.1 0-6-1.5-8-4.3-1.7-2.3-2.6-4.6-2.8-7.1l-3.1-16.3c-9.3 11.9-21.2 21.7-35.6 29.3-18.2 9.6-39 14.5-61.9 14.5-35.1 0-68-10.4-97.8-30.9-29.5-20.5-53.2-48.4-70.4-83-17.3-34.8-26-73.3-26-114.5 0-45.8 11.9-81.9 35.4-107.1 23.5-25.6 57.1-38.6 99.8-38.6 25.1 0 48.6 5.9 69.6 17.4 17.5 9.9 32.6 21.9 44.9 35.8 2.4-9.4 6.4-17.5 11.9-24.2l0.2-0.2c13.3-14.5 33-21.8 58.6-21.8h6.7l0.4 0.1c2.3 0.4 3.9 0.6 5.1 0.6 19.6 0.4 39 4 57.8 10.8 18.6 6.7 36.2 16.7 52.3 29.7 16.6 13 29.7 31.2 39.1 54.1 9.9 22.7 14.9 48.8 14.9 77.7-0.1 85.1-25.6 155.8-75.7 210.3zM796.3 194.8c0-25.9-5.2-51.3-15.4-75.6l-0.5-1c-10.8-24.6-26.4-45.6-46.1-62.5-19.4-16.2-41.1-24.3-64.5-24.3-23.8 0-41.7 7.2-54.7 22-12.6 14.4-19 35.6-19 63.2 0 24.3 3.8 47.1 11.3 67.8 7.4 20.5 17.4 37.6 29.7 51 12.5 13.7 25.9 24.1 40.9 31.9 15.1 7.4 30.5 11.1 45.7 11.1 22.9 0 40.2-7.2 52.9-22l0.1-0.1c13-14.5 19.6-35.2 19.6-61.5zM487.4 431.7h-395.6l194.1 161.7 61.5-51.9c4.4-3.8 10.1-5.9 16.1-5.9s11.7 2.1 16.1 5.9l61.7 52 126.4-112.5c16 7.1 34.1 13.4 54.7 18.6l-142.5 126.5 197.2 166.5v-283.1c16.3 2 33.8 3.3 52.6 3.7v334.3c0 12.6-10.3 22.9-22.9 22.9h-683.9c-12.6 0-22.9-10.3-22.9-22.9v-443c0-12.6 10.3-22.9 22.9-22.9h418.9c5.9 12.3 26.2 30.8 45.6 50.1zM632.6 819.9l-269-226.9-268.6 226.9h537.6zM50.3 792.5l197.1-166.4-197.1-164.2v330.6z"/>
<glyph unicode="" glyph-name="infos_sondages" d="M995.65 804.4v0c-17.8 17.8-39.5 26.8-64.5 26.8h-838.3c-25 0-46.7-9-64.4-26.8-17.8-17.8-26.8-39.5-26.8-64.4v-574.9c0-25 9-46.7 26.8-64.4 17.8-17.8 39.4-26.8 64.4-26.8 0 0 0 0 0 0h378.2v-106.2h-176.9c-0.2 0-0.5 0-0.8 0-13 0-23.6-10.6-23.6-23.6 0-0.3 0-0.5 0-0.8v-33.3c0-0.2 0-0.5 0-0.8 0-13 10.6-23.6 23.6-23.6 0.3 0 0.5 0 0.8 0h435.7c0.2 0 0.5 0 0.8 0 13 0 23.6 10.6 23.6 23.6 0 0.3 0 0.5 0 0.8v33.2c0 0.2 0 0.5 0 0.8 0 13-10.6 23.6-23.6 23.6-0.3 0-0.5 0-0.8 0h-176.9v106.2h378.2c25 0 46.7 9 64.4 26.8 17.8 17.8 26.8 39.5 26.8 64.4v575c0.1 24.9-8.9 46.6-26.7 64.4zM940.55 165.1c-0.1-5.2-4.2-9.4-9.3-9.5h-838.3c-5.2 0.1-9.4 4.2-9.5 9.3v574.8c0.1 5.2 4.2 9.4 9.3 9.5h838.3c5.2-0.1 9.4-4.2 9.5-9.3v-574.8zM396.75 588.3v0c-36.1 0-68.8-20-83.2-51-15.3-32.7-7.8-74.4 17.7-99.3 11-10.7 24.7-17.9 39.7-20.9l0.6-0.1c0.3 0 0.6-0.1 0.8-0.1-2.6-2.6-5.8-5.5-9.7-8.7-8.2-6.4-17.2-12.3-26.7-17.3l-4-2c-9.3-4.8-28.5-14.8-28.9-37-0.3-17.7 9.2-26.3 14.9-29.8l0.2-0.1c5.7-3.4 12.3-5.1 19-5.1 0.4 0 0.7 0 1.1 0 17.2 0 35.6 8.6 42.7 12.3 58.2 30.1 99.2 79.4 109.8 131.7 6.6 32.5-2.1 68.2-22.7 93.3-17.9 21.9-43.3 34.1-71.3 34.1zM621.95 588.3c-36.6 0-68.5-19.5-83.2-51-15.3-32.7-7.8-74.4 17.7-99.3 11-10.7 24.7-17.9 39.7-20.9l0.7-0.1c0.3 0 0.6-0.1 0.8-0.1-2.7-2.7-5.9-5.6-9.7-8.7-8.2-6.4-17.2-12.3-26.7-17.3l-4-2.1c-9.2-4.8-28.5-14.8-28.9-37-0.3-17.7 9.2-26.3 14.9-29.8l0.2-0.1c5.7-3.4 12.3-5.1 19.1-5.1 0.4 0 0.7 0 1.1 0 17.2 0 35.6 8.6 42.7 12.3 58.2 30.1 99.2 79.4 109.8 131.7 6.6 32.4-2.1 68.2-22.7 93.3-18.2 22-43.5 34.2-71.5 34.2z"/>
<glyph unicode="" glyph-name="ical" horiz-adv-x="952" d="M951.778 637.752v-732.144q0-29.731-21.738-51.484t-51.469-21.784h-805.365q-29.746 0-51.484 21.738t-21.722 51.53v732.144q0 29.731 21.738 51.484t51.484 21.738h73.206v54.901q0 37.755 26.886 64.641t64.626 26.871h36.611q37.755 0 64.641-26.886t26.886-64.641v-54.901h219.635v54.917q0 37.755 26.886 64.641t64.579 26.871h36.611q37.755 0 64.641-26.886t26.917-64.626v-54.917h73.206q29.731 0 51.484-21.738t21.738-51.469zM73.206-94.391h805.35v585.715h-805.35zM292.857 601.141v164.734c0.009 0.207 0.014 0.449 0.014 0.694 0 9.735-7.891 17.625-17.625 17.625-0.244 0-0.486-0.005-0.729-0.015l0.035 0.001h-36.611c-0.207 0.009-0.449 0.014-0.694 0.014-9.735 0-17.625-7.891-17.625-17.625 0-0.244 0.005-0.486 0.015-0.729l-0.001 0.035v-164.734c-0.009-0.207-0.014-0.449-0.014-0.694 0-9.735 7.891-17.625 17.625-17.625 0.244 0 0.486 0.005 0.729 0.015l-0.035-0.001h36.611c0.207-0.009 0.449-0.014 0.694-0.014 9.735 0 17.625 7.891 17.625 17.625 0 0.244-0.005 0.486-0.015 0.729l0.001-0.035zM732.144 601.141v164.734c0.009 0.207 0.014 0.449 0.014 0.694 0 9.735-7.891 17.625-17.625 17.625-0.244 0-0.486-0.005-0.729-0.015l0.035 0.001h-36.658c-0.207 0.009-0.449 0.014-0.694 0.014-9.735 0-17.625-7.891-17.625-17.625 0-0.244 0.005-0.486 0.015-0.729l-0.001 0.035v-164.734c-0.009-0.207-0.014-0.449-0.014-0.694 0-9.735 7.891-17.625 17.625-17.625 0.244 0 0.486 0.005 0.729 0.015l-0.035-0.001h36.611c0.207-0.009 0.449-0.014 0.694-0.014 9.735 0 17.625 7.891 17.625 17.625 0 0.244-0.005 0.486-0.015 0.729l0.001-0.035zM124.444 78.553v53.448h53.448v-53.448zM232.669 307.944v49.474h53.448v-49.474zM232.669 78.553v201.994h53.448v-201.994zM517.038 220.822l-52.69-9.508q-2.66 15.785-12.075 23.778t-24.444 7.993q-19.976 0-31.864-13.791t-11.89-46.119q0-35.946 12.075-50.789t32.468-14.842q15.214 0 24.922 8.658t13.698 29.762l52.566-8.937q-8.179-36.147-31.386-54.592t-62.307-18.445q-44.326 0-70.656 27.968t-26.284 77.412q0 50.031 26.438 77.891t71.522 27.829q36.905 0 58.75-15.879t31.153-48.392zM597.495 218.859l-48.5 8.751q8.179 29.283 28.154 43.367t59.338 14.070q35.761 0 53.262-8.457t24.629-21.49 7.127-47.836l-0.572-62.384q0-26.623 2.567-39.27c2.272-10.258 5.578-19.307 9.902-27.749l-0.3 0.647h-52.83q-2.087 5.318-5.133 15.785-1.329 4.747-1.902 6.277c-8.23-8.198-17.938-14.921-28.687-19.731l-0.611-0.244c-9.67-4.214-20.937-6.666-32.776-6.666-0.18 0-0.359 0.001-0.539 0.002h0.028q-31.199 0-49.165 16.93t-17.981 42.796c-0.005 0.29-0.008 0.634-0.008 0.977 0 10.917 3.045 21.122 8.331 29.813l-0.144-0.254c5.489 8.969 13.288 16.047 22.577 20.517l0.32 0.139q14.734 7.127 42.518 12.461 37.477 7.035 51.933 13.126v5.334q0 15.461-7.606 21.969t-28.726 6.555q-14.27 0-22.248-5.612t-12.956-19.82zM669.017 175.568c-8.312-2.711-19.216-5.537-30.321-7.812l-2.147-0.367q-22.248-4.762-29.097-9.276-10.467-7.421-10.467-18.831c0-0.052-0.001-0.113-0.001-0.174 0-7.583 3.212-14.417 8.349-19.215l0.015-0.014c5.246-5.071 12.402-8.196 20.288-8.196 0.357 0 0.714 0.006 1.069 0.019l-0.051-0.001c10.435 0.121 20.017 3.678 27.69 9.588l-0.108-0.080c6.008 4.28 10.487 10.362 12.676 17.45l0.063 0.237q2.087 6.849 2.087 26.066zM774.197 78.553v278.85h53.448v-278.85z"/>
<glyph unicode="" glyph-name="doc_telech" d="M899.546 616.043l-250.471 250.456c-2.716 2.718-6.467 4.4-10.612 4.403h-503.323c-8.293 0-15.017-6.723-15.017-15.017v0-994.969c0-8.293 6.723-15.017 15.017-15.017v0h753.72c8.293 0 15.017 6.723 15.017 15.017v0 744.498c0 0.023 0 0.050 0 0.076 0 4.113-1.654 7.841-4.333 10.552l0.001-0.002zM662.773 732.214c0.006 8.289 6.727 15.007 15.017 15.007 4.144 0 7.897-1.679 10.613-4.393v0l87.4-87.4c2.715-2.717 4.393-6.469 4.393-10.613 0-8.29-6.718-15.011-15.006-15.017h-87.401c-8.293 0-15.017 6.723-15.017 15.017v0zM843.656-78.788c0-8.293-6.723-15.017-15.017-15.017-0.005 0-0.010 0-0.015 0h-633.188c-0.017 0-0.037 0-0.057 0-8.293 0-15.017 6.723-15.017 15.017 0 0 0 0 0 0v0 874.38c0 0.017 0 0.037 0 0.057 0 8.293 6.723 15.017 15.017 15.017 0.020 0 0.040 0 0.061 0h392.024c8.293 0 15.017-6.723 15.017-15.017v0-211.201c0-8.293 6.723-15.017 15.017-15.017v0h211.13c8.293 0 15.017-6.723 15.017-15.017v0zM476.684 572.229v-351.653c-0.007-2.957-2.406-5.351-5.364-5.351-1.478 0-2.817 0.598-3.787 1.565v0l-101.184 101.169c-0.97 0.967-2.308 1.565-3.787 1.565s-2.817-0.598-3.787-1.565v0l-33.273-33.273c-0.967-0.97-1.565-2.308-1.565-3.787s0.598-2.817 1.565-3.787v0l176.293-176.293c0.97-0.967 2.308-1.565 3.787-1.565s2.817 0.598 3.787 1.565v0l176.264 176.322c0.967 0.97 1.565 2.308 1.565 3.787s-0.598 2.817-1.565 3.787v0l-33.273 33.273c-0.97 0.967-2.308 1.565-3.787 1.565s-2.817-0.598-3.787-1.565v0l-101.184-101.169c-0.97-0.967-2.308-1.565-3.787-1.565-2.958 0-5.356 2.394-5.364 5.35v346.248c0 2.963-2.401 5.364-5.364 5.364v0h-52.406zM288.889 46.232v-47.042c0-2.963 2.401-5.364 5.364-5.364v0h422.648c2.963 0 5.364 2.401 5.364 5.364v0 47.042c0 2.963-2.401 5.364-5.364 5.364v0h-422.662c-2.956-0.008-5.349-2.406-5.349-5.364 0 0 0 0 0 0v0z"/>
<glyph unicode="" glyph-name="bulletin" d="M959.5 616l-250.4 250.5c-2.7 2.7-6.5 4.4-10.6 4.4h-623.4c-8.3 0-15-6.7-15-15v0-995c0-8.3 6.7-15 15-15v0h873.7c8.3 0 15 6.7 15 15v0 744.5c0 0 0 0 0 0.1 0.1 4.1-1.6 7.8-4.3 10.5v0 0zM722.8 732.2c0 8.3 6.7 15 15 15 4.1 0 7.9-1.7 10.6-4.4v0l87.4-87.4c2.7-2.7 4.4-6.5 4.4-10.6 0-8.3-6.7-15-15-15h-87.4c-8.3 0-15 6.7-15 15v0 87.4zM903.7-78.8c0-8.3-6.7-15-15-15 0 0 0 0 0 0h-753.3c0 0 0 0-0.1 0-8.3 0-15 6.7-15 15v0 0 874.4c0 0 0 0 0 0.1 0 8.3 6.7 15 15 15 0 0 0 0 0.1 0h512c8.3 0 15-6.7 15-15v0-211.3c0-8.3 6.7-15 15-15v0h211.1c8.3 0 15-6.7 15-15v0l0.2-633.2zM542.1 514.4h-301.4v-542.6h542.6v542.6h-241.2zM361.3 32.1h-60.3v120.6h60.2v-120.6zM361.3 213h-60.3v120.5h60.2v-120.5zM361.3 393.8h-60.3v60.2h60.2v-60.2zM542.1 32.1h-120.5v120.6h120.6v-120.6zM542.1 213h-120.5v120.5h120.6v-120.5zM542.1 393.8h-120.5v60.2h120.6v-60.2zM723 32.1h-120.6v120.6h120.6v-120.6zM723 213h-120.6v120.5h120.6v-120.5zM723 393.8h-120.6v60.2h120.6v-60.2z"/>
<glyph unicode="" glyph-name="contenu_cours" d="M68.453 806.456v-896.049c0.107-35.326 28.737-63.929 64.063-63.991h63.95v1023.984h-63.944c-35.316-0.062-63.935-28.638-64.069-63.931v-0.013zM955.548 870.4h-703.95v-1024h703.95zM814.495 511.123h-429.843v192.052h429.843z"/>
<glyph unicode="" glyph-name="feuille_appel" d="M899.167 615.789l-250.226 250.211c-2.713 2.715-6.461 4.396-10.602 4.399h-502.831c-8.285 0-15.002-6.716-15.002-15.002v0-993.995c0-8.285 6.716-15.002 15.002-15.002v0h752.983c8.285 0 15.002 6.716 15.002 15.002v0 743.77c0 0.023 0 0.050 0 0.076 0 4.109-1.652 7.833-4.329 10.542l0.001-0.002zM662.626 731.846c0.006 8.281 6.72 14.992 15.002 14.992 4.14 0 7.889-1.677 10.603-4.389v0l87.314-87.314c2.712-2.714 4.389-6.463 4.389-10.603 0-8.282-6.711-14.996-14.991-15.002h-87.315c-8.285 0-15.002 6.716-15.002 15.002v0zM843.332-78.362c0-8.285-6.716-15.002-15.002-15.002-0.005 0-0.010 0-0.015 0h-632.568c-0.017 0-0.037 0-0.057 0-8.285 0-15.002 6.716-15.002 15.002 0 0 0 0 0 0v0 873.524c0 0.017 0 0.037 0 0.057 0 8.285 6.716 15.002 15.002 15.002 0.020 0 0.040 0 0.061 0h391.64c8.285 0 15.002-6.716 15.002-15.002v0-210.994c0-8.285 6.716-15.002 15.002-15.002v0h210.923c8.285 0 15.002-6.716 15.002-15.002v0zM286.556 347.267h442.35c8.388 0 15.188-6.8 15.188-15.188v-16.907c0-8.388-6.8-15.188-15.188-15.188h-442.35c-8.388 0-15.188 6.8-15.188 15.188v16.907c0 8.388 6.8 15.188 15.188 15.188zM286.556 247.93h442.35c8.388 0 15.188-6.8 15.188-15.188v-16.907c0-8.388-6.8-15.188-15.188-15.188h-442.35c-8.388 0-15.188 6.8-15.188 15.188v16.907c0 8.388 6.8 15.188 15.188 15.188zM286.556 148.58h442.35c8.388 0 15.188-6.8 15.188-15.188v-16.907c0-8.388-6.8-15.188-15.188-15.188h-442.35c-8.388 0-15.188 6.8-15.188 15.188v16.907c0 8.388 6.8 15.188 15.188 15.188zM286.556 49.244h442.35c8.388 0 15.188-6.8 15.188-15.188v-16.907c0-8.388-6.8-15.188-15.188-15.188h-442.35c-8.388 0-15.188 6.8-15.188 15.188v16.907c0 8.388 6.8 15.188 15.188 15.188zM338.481 427.662l-85.668 85.739c-3.511 3.511-5.683 8.361-5.683 13.719s2.172 10.208 5.683 13.719l21.85 21.85c3.511 3.511 8.361 5.683 13.719 5.683s10.208-2.172 13.719-5.683l36.379-36.379c3.511-3.511 8.361-5.683 13.719-5.683s10.208 2.172 13.719 5.683l110.326 110.326c3.511 3.511 8.361 5.683 13.719 5.683s10.208-2.172 13.719-5.683l21.85-21.85c3.511-3.511 5.683-8.361 5.683-13.719s-2.172-10.208-5.683-13.719l-159.615-159.687c-3.511-3.511-8.361-5.683-13.719-5.683s-10.208 2.172-13.719 5.683v0z"/>
<glyph unicode="" glyph-name="notes_etoile" d="M1019.27 482.152c-11.17 30.977-36.126 50.736-66.881 52.926l-263.5 25.111-105.853 242.63c-13.126 28.404-41.035 46.783-71.132 46.783-32.817 0-60.789-18.797-71.621-47.965l-105.405-241.528-263.425-25.031c-31.986-2.102-58.347-23.972-67.098-53.419l-0.136-0.53c-2.672-7.545-4.217-16.246-4.217-25.311 0-23.011 9.962-43.699 25.808-57.984l0.071-0.061 198.551-176.554c0.099-0.148 0.193-0.316 0.27-0.493l0.008-0.020-57.204-258.463v-0.17c-6.733-31.424 5.25-62.72 30.534-79.913 12.425-9.345 28.111-14.963 45.11-14.963 0.002 0 0.004 0 0.005 0v0c14.657 0.145 28.381 4.021 40.302 10.718l-0.421-0.216 0.405 0.212 227.615 133.522 1.248 0.447 229.189-133.145c13.441-6.723 25.742-9.988 37.596-9.988 17.512 0 33.922 5.541 46.283 15.632 19.114 14.388 31.345 37.032 31.345 62.535 0 5.899-0.653 11.642-1.893 17.165l0.096-0.522-57.35 258.804 0.145 0.17 200.271 176.71c23.853 21.685 32.201 54.198 21.291 82.908zM964.915 435.84l-201.731-178.062c-9.245-8.923-14.989-21.422-14.989-35.265 0-2.958 0.263-5.855 0.767-8.666l-0.043 0.295 0.103-0.645 57.756-260.367c2.455-11.59-1.682-22.393-11.368-29.652l-0.984-0.787c-3.41-2.85-9.187-4.622-15.213-4.622-3.835 0-8.848 1.499-14.897 4.462l-226.316 131.345c-9.545 7.378-20.504 7.378-26.068 7.378v0 14.728c-2.859 1.294-6.201 2.050-9.721 2.050-13.302 0-24.089-10.782-24.089-24.089 0-1.547 0.147-3.057 0.423-4.521l-0.026 0.152-75.465-44.3c-4.227 3.764-9.833 6.060-15.973 6.060-13.294 0-24.075-10.776-24.075-24.075 0-1.831 0.205-3.615 0.591-5.328l-0.031 0.159-75.069-44.065c-4.296 4.050-10.1 6.539-16.489 6.539-13.291 0-24.061-10.774-24.061-24.061 0-1.228 0.092-2.433 0.271-3.614l-0.017 0.133c-1.515-0.307-3.258-0.483-5.041-0.483-6.085 0-11.693 2.049-16.169 5.493l0.062-0.045-1.116 0.787c-8.584 5.724-12.706 17.314-10.251 28.879l3.595 16.212c3.96-2.968 8.953-4.752 14.366-4.752 13.31 0 24.1 10.79 24.1 24.1s-10.79 24.1-24.1 24.1c-1.732 0-3.418-0.182-5.047-0.529l0.155 0.030 20.216 91.257c5.42 4.457 8.848 11.164 8.848 18.673 0 3.807-0.883 7.408-2.452 10.611l0.063-0.143 7.521 33.959c2.702-1.136 5.842-1.799 9.134-1.799 13.318 0 24.112 10.796 24.112 24.112 0 12.917-10.156 23.46-22.915 24.086l-0.055 0.002 0.080 0.381c3.123 15.448-2.285 32.513-14.11 44.328l-0.514 0.514-1.131 1.012c-1.791 11.379-11.328 20.039-22.969 20.45l-0.040 0.001-25.596 22.749c6.403 4.399 10.544 11.684 10.544 19.932 0 13.318-10.796 24.112-24.112 24.112-9.246 0-17.281-5.205-21.326-12.846l-0.063-0.132-115.039 102.257c-2.423 2.207-4.477 4.759-6.103 7.591l-0.082 0.153c2.135 3.528 3.401 7.786 3.401 12.342 0 5.151-1.618 9.925-4.37 13.845l0.050-0.078c3.359 9.984 12.401 17.152 23.185 17.693l0.061 0.003h0.339l147.020 13.968c3.262-1.756 7.139-2.792 11.257-2.792 5.728 0 10.986 1.996 15.122 5.332l-0.045-0.034 42.582 4.070c4.451-5.71 11.328-9.348 19.058-9.348 9.331 0 17.422 5.304 21.428 13.057l0.063 0.135 7.207 0.683c9.018 0.337 17.286 3.283 24.155 8.089l-0.146-0.094c1.187-12.315 11.483-21.868 24.008-21.868 13.318 0 24.112 10.796 24.112 24.112s-10.796 24.112-24.112 24.112c-1.817 0-3.592-0.202-5.294-0.584l0.159 0.031 19.415 44.497c0-0.432 0-0.867 0-1.314 0.001-13.325 10.802-24.126 24.127-24.126s24.127 10.802 24.127 24.127c0 13.325-10.802 24.127-24.127 24.127-6.81 0-12.96-2.821-17.346-7.357l-0.007-0.007 72.577 166.312c3.925 3.842 6.539 9.014 7.105 14.785l0.008 0.098 24.008-42.373v56.761c10.671 0 21.187-7.207 26.252-17.959l106.064-243.040c6.116-14.822 19.886-25.020 37.855-28.028l0.853-0.145 265.852-25.178c15.005-0.999 21.592-13.338 24.179-20.598l0.212-0.565c3.661-9.649 0.432-20.975-8.258-28.945zM478.115 721.46c0.005-13.314 10.799-24.103 24.112-24.103 3.5 0 6.827 0.746 9.828 2.087l-0.153-0.061v44.145c-2.855 1.287-6.189 2.037-9.701 2.037-13.318 0-24.112-10.796-24.112-24.112 0-0.001 0-0.002 0-0.003v0zM487.971 654.697c0-13.318-10.796-24.112-24.112-24.112s-24.112 10.796-24.112 24.112c0 13.318 10.796 24.112 24.112 24.112s24.112-10.796 24.112-24.112zM478.115 587.948c0.005-13.314 10.799-24.103 24.112-24.103 3.5 0 6.827 0.746 9.828 2.087l-0.153-0.061v44.145c-2.855 1.287-6.189 2.037-9.701 2.037-13.318 0-24.112-10.796-24.112-24.112 0-0.001 0-0.002 0-0.003v0zM487.971 521.189c0-13.318-10.796-24.112-24.112-24.112s-24.112 10.796-24.112 24.112c0 13.318 10.796 24.112 24.112 24.112s24.112-10.796 24.112-24.112zM219.482 454.44c0-13.318-10.796-24.112-24.112-24.112s-24.112 10.796-24.112 24.112c0 13.318 10.796 24.112 24.112 24.112s24.112-10.796 24.112-24.112zM296.195 454.44c0-13.318-10.796-24.112-24.112-24.112s-24.112 10.796-24.112 24.112c0 13.318 10.796 24.112 24.112 24.112s24.112-10.796 24.112-24.112zM372.903 454.44c0-13.318-10.796-24.112-24.112-24.112s-24.112 10.796-24.112 24.112c0 13.318 10.796 24.112 24.112 24.112s24.112-10.796 24.112-24.112zM449.63 454.44c0-13.318-10.796-24.112-24.112-24.112s-24.112 10.796-24.112 24.112c0 13.318 10.796 24.112 24.112 24.112s24.112-10.796 24.112-24.112zM478.115 454.492c0-0.014 0-0.030 0-0.042 0-13.318 10.796-24.112 24.112-24.112 3.5 0 6.827 0.746 9.828 2.087l-0.153-0.061v44.145c-2.85 1.279-6.173 2.025-9.673 2.025-13.293 0-24.071-10.754-24.112-24.037v-0.004zM181.127 387.677c0-13.318-10.796-24.112-24.112-24.112s-24.112 10.796-24.112 24.112c0 13.318 10.796 24.112 24.112 24.112s24.112-10.796 24.112-24.112zM257.836 387.677c0-13.318-10.796-24.112-24.112-24.112s-24.112 10.796-24.112 24.112c0 13.318 10.796 24.112 24.112 24.112s24.112-10.796 24.112-24.112zM334.549 387.677c0-13.318-10.796-24.112-24.112-24.112s-24.112 10.796-24.112 24.112c0 13.318 10.796 24.112 24.112 24.112s24.112-10.796 24.112-24.112zM411.263 387.677c0-13.318-10.796-24.112-24.112-24.112s-24.112 10.796-24.112 24.112c0 13.318 10.796 24.112 24.112 24.112s24.112-10.796 24.112-24.112zM487.971 387.677c0-13.318-10.796-24.112-24.112-24.112s-24.112 10.796-24.112 24.112c0 13.318 10.796 24.112 24.112 24.112s24.112-10.796 24.112-24.112zM296.195 320.928c0-13.318-10.796-24.112-24.112-24.112s-24.112 10.796-24.112 24.112c0 13.318 10.796 24.112 24.112 24.112s24.112-10.796 24.112-24.112zM372.903 320.928c0-13.318-10.796-24.112-24.112-24.112s-24.112 10.796-24.112 24.112c0 13.318 10.796 24.112 24.112 24.112s24.112-10.796 24.112-24.112zM449.63 320.928c0-13.318-10.796-24.112-24.112-24.112s-24.112 10.796-24.112 24.112c0 13.318 10.796 24.112 24.112 24.112s24.112-10.796 24.112-24.112zM478.115 320.928c0.005-13.314 10.799-24.103 24.112-24.103 3.5 0 6.827 0.746 9.828 2.087l-0.153-0.061v44.145c-2.855 1.287-6.189 2.037-9.701 2.037-13.318 0-24.112-10.796-24.112-24.112 0-0.001 0-0.002 0-0.003v0zM334.549 254.169c0-13.318-10.796-24.112-24.112-24.112s-24.112 10.796-24.112 24.112c0 13.318 10.796 24.112 24.112 24.112s24.112-10.796 24.112-24.112zM411.263 254.169c0-13.318-10.796-24.112-24.112-24.112s-24.112 10.796-24.112 24.112c0 13.318 10.796 24.112 24.112 24.112s24.112-10.796 24.112-24.112zM487.971 254.169c0-13.318-10.796-24.112-24.112-24.112s-24.112 10.796-24.112 24.112c0 13.318 10.796 24.112 24.112 24.112s24.112-10.796 24.112-24.112zM372.903 187.419c0-13.318-10.796-24.112-24.112-24.112s-24.112 10.796-24.112 24.112c0 13.318 10.796 24.112 24.112 24.112s24.112-10.796 24.112-24.112zM449.63 187.419c0-13.318-10.796-24.112-24.112-24.112s-24.112 10.796-24.112 24.112c0 13.318 10.796 24.112 24.112 24.112s24.112-10.796 24.112-24.112zM478.115 187.419c0.005-13.314 10.799-24.103 24.112-24.103 3.5 0 6.827 0.746 9.828 2.087l-0.153-0.061v44.145c-2.855 1.287-6.189 2.037-9.701 2.037-13.318 0-24.112-10.796-24.112-24.112 0-0.001 0-0.002 0-0.003v0zM334.549 120.657c0-13.318-10.796-24.112-24.112-24.112s-24.112 10.796-24.112 24.112c0 13.318 10.796 24.112 24.112 24.112s24.112-10.796 24.112-24.112zM411.263 120.657c0-13.318-10.796-24.112-24.112-24.112s-24.112 10.796-24.112 24.112c0 13.318 10.796 24.112 24.112 24.112s24.112-10.796 24.112-24.112zM487.971 120.657c0-13.318-10.796-24.112-24.112-24.112s-24.112 10.796-24.112 24.112c0 13.318 10.796 24.112 24.112 24.112s24.112-10.796 24.112-24.112zM296.195 53.908c0-13.318-10.796-24.112-24.112-24.112s-24.112 10.796-24.112 24.112c0 13.318 10.796 24.112 24.112 24.112s24.112-10.796 24.112-24.112zM372.903 53.908c0-13.318-10.796-24.112-24.112-24.112s-24.112 10.796-24.112 24.112c0 13.318 10.796 24.112 24.112 24.112s24.112-10.796 24.112-24.112zM449.63 53.908c0-13.318-10.796-24.112-24.112-24.112s-24.112 10.796-24.112 24.112c0 13.318 10.796 24.112 24.112 24.112s24.112-10.796 24.112-24.112zM334.549-12.856c0-13.318-10.796-24.112-24.112-24.112s-24.112 10.796-24.112 24.112c0 13.318 10.796 24.112 24.112 24.112s24.112-10.796 24.112-24.112zM132.898 454.44c0-13.318-10.796-24.112-24.112-24.112s-24.112 10.796-24.112 24.112c0 13.318 10.796 24.112 24.112 24.112s24.112-10.796 24.112-24.112z"/>
<glyph unicode="" glyph-name="engagement" d="M960.658 773.266h-125.806v97.134h-652.727v-286.427h-181.248v-427.008l-0.878-0.731 0.878-0.878v-1.755h1.755l308.809-308.809 1.755 1.755h434.322l1.755-1.755 1.755 1.755h0.585v0.585l272.384 272.384v653.751h-63.342zM182.272 486.839v-189.147h97.134v475.575h89.819v-278.821h97.134v278.821h87.479v-278.821h97.134v278.821h86.455v-278.821h97.134v181.541h92.014v-481.28l-226.158-226.45h-340.114l-262.29 262.29v256.293h84.261z"/>
<glyph unicode="" glyph-name="releve_notes" d="M473.086 176.875h-107.395l5.794 5.295c0.1 0 0.1 0.1 0.2 0.1 32.268 31.17 57.444 57.044 75.027 82.32 19.881 28.572 29.172 54.747 29.172 82.519 0 47.454-30.87 95.407-99.803 95.407h-0.799c-32.468 0-64.137-11.489-89.013-32.268-4.096-3.397-4.795-9.491-1.499-13.687l11.689-25.875c1.299-2.797 3.796-4.895 6.893-5.595 2.997-0.699 6.194 0.1 8.592 2.098 10.090 8.392 30.77 22.578 55.945 22.578 32.069 0 48.253-15.984 48.253-47.254-0.4-39.461-31.669-75.426-106.296-146.557l-31.17-30.27c-1.898-1.898-2.997-4.496-2.997-7.193v-24.376c0-5.495 4.496-9.99 9.99-9.99h187.417c5.495 0 9.99 4.496 9.99 9.99v32.868c0 5.395-4.496 9.89-9.99 9.89zM704.36 398.659c-18.582 28.572-46.155 43.757-79.922 43.757-0.1 0-0.2 0-0.2 0-33.467 0-61.64-15.085-81.62-43.657s-30.47-69.732-30.47-119.084c0.5-48.852 10.49-89.413 29.072-117.285 18.882-28.472 45.855-43.458 78.024-43.458 35.565 0 64.537 15.385 83.818 44.556 18.782 28.372 28.272 68.933 28.272 120.382 0 48.652-9.091 87.315-26.974 114.788zM621.941 391.765c43.158 0 49.652-68.733 49.652-109.693 0-36.265-4.795-65.736-13.886-85.117-8.592-18.382-20.48-27.373-36.265-27.373-30.67 0-49.652 42.059-49.652 109.693 0 68.333 19.681 112.49 50.151 112.49zM899.17 615.747l-250.156 250.256c-2.697 2.697-6.494 4.396-10.59 4.396h-502.909c-8.292 0-14.985-6.693-14.985-14.985v0-994.029c0-8.292 6.693-14.985 14.985-14.985v0h752.965c8.292 0 14.985 6.693 14.985 14.985v0 743.774c0 0 0 0 0 0.1 0.1 4.096-1.598 7.792-4.296 10.49v0 0zM662.601 731.833c0 8.292 6.693 14.985 14.985 14.985 4.096 0 7.892-1.698 10.59-4.396v0l87.315-87.315c2.697-2.697 4.396-6.494 4.396-10.59 0-8.292-6.693-14.985-14.985-14.985h-87.315c-8.292 0-14.985 6.693-14.985 14.985v0 87.315zM843.325-78.375c0-8.292-6.693-14.985-14.985-14.985 0 0 0 0 0 0h-632.582c0 0 0 0-0.1 0-8.292 0-14.985 6.693-14.985 14.985v0 0 873.547c0 0 0 0 0 0.1 0 8.292 6.693 14.985 14.985 14.985 0 0 0 0 0.1 0h391.618c8.292 0 14.985-6.693 14.985-14.985v0-210.994c0-8.292 6.693-14.985 14.985-14.985v0h210.894c8.292 0 14.985-6.693 14.985-14.985v0l0.1-632.682z"/>
<glyph unicode="" glyph-name="taf" d="M511.95 674.619c0 195.881-323.068 195.781-511.95 195.781v-867.215h38.796c13.599 0 25.897 0 38.796-0.2v-78.192c155.085 0 356.865 46.995 356.865-78.392h155.085c0 125.388 201.88 78.392 356.865 78.392v78.092c12.899 0 25.198 0.2 38.796 0.2h38.796v867.315c-188.782 0-512.050 0.1-512.050-195.781zM434.358 46.48c-113.089 67.593-216.779 73.593-356.765 74.193v671.334c38.596-0.4 73.393-2 106.19-4.2l19.198-1.2 7.099-0.5c152.485-10.999 205.78-4 221.878-96.391l2.4-14.999zM946.308 120.573c-140.086-0.6-243.776-6.599-356.865-74.093v628.139c0 51.895-26.397 113.489 356.865 117.389z"/>
<glyph unicode="" glyph-name="vs" d="M983.605 870.4h-943.21c-22.332 0-40.395-18.063-40.395-40.395v-943.21c0-22.332 18.063-40.395 40.395-40.395h943.21c22.332 0 40.395 18.063 40.395 40.395v943.21c0 22.332-18.063 40.395-40.395 40.395zM509.044 596.72l-163.332-492.623c-1.423-4.707-5.911-7.882-10.838-7.882h-77.506c-5.036 0-9.415 3.175-10.947 7.882l-162.675 492.623c-2.518 7.444 3.065 15.217 10.947 15.217h106.516c5.145 0 9.524-3.394 10.947-8.21l73.237-243.137c3.394-10.947 18.939-10.947 22.113 0l72.142 243.137c1.423 4.817 6.021 8.21 11.166 8.21h107.282c7.882 0 13.465-7.773 10.947-15.217zM741.672 96.105c-74.769 0-136.402 12.918-186.978 59.772-4.817 4.379-5.036 12.042-0.328 16.749l65.245 65.245c4.050 4.050 10.728 4.488 15.217 0.985 27.587-21.675 70.062-29.557 107.72-29.557 49.919 0 73.894 16.749 73.894 46.307 0 12.261-2.956 22.442-10.071 30.433-6.459 6.459-17.406 11.604-34.046 13.793l-62.29 8.648c-45.54 6.459-80.462 21.675-103.56 45.54-23.865 24.631-35.469 59.334-35.469 103.56 0 94.255 71.047 162.894 188.292 162.894 68.967 0 122.171-15.217 164.974-53.203 5.036-4.379 5.145-12.151 0.438-16.859l-63.494-63.494c-4.269-4.269-10.838-4.488-15.545-0.766-24.741 20.471-52.765 23.427-90.095 23.427-44.227 0-62.29-25.397-62.29-47.73 0-6.459 2.189-15.983 10.071-23.865 6.459-6.459 17.406-13.027 35.469-15.217l62.29-8.648c46.307-6.459 79.696-20.909 101.371-42.804 27.587-26.821 38.425-65.245 38.425-112.975 0-104.874-90.533-162.237-199.239-162.237z"/>
<glyph unicode="" glyph-name="clic" d="M840.501 870.4v-830.648h-57.209v51.301h-51.301v49.313h51.301v633.346h-51.301v49.329h51.301v47.355zM731.984 773.715v-47.355h-55.235v47.355zM676.748 726.36v-49.313h-53.281v49.313zM623.472 677.052v-47.355h-57.209v47.355zM566.261 629.692v-53.281h-51.301v53.281zM514.949 576.413v-47.329h-59.182v47.329zM455.768 529.082v-49.329h-55.235v49.329zM400.531 479.74v-47.355h-53.281v47.355zM347.254 432.383v-47.355h-53.281v47.355zM293.967 385.030v-51.289h161.799v-147.999h-55.235v100.641h-217.034v47.355h55.235v51.289zM400.531 185.752v-94.689h-53.281v94.689zM347.254 91.067v-98.658h-53.281v98.658zM293.967-7.606v-98.644h-55.235v98.644zM293.967-106.245h106.563v-47.355h-106.563zM400.531-106.245v98.644h55.235v-98.644zM455.768-7.606v98.658h59.182v-98.658zM514.949 91.067v94.689h51.301v-94.689zM566.261 185.752v100.641h57.209v-49.329h53.281v-51.301h-110.497zM676.748 185.752h55.235v-45.382h-55.235z"/>
<glyph unicode="" glyph-name="contact_vs" horiz-adv-x="1007" d="M857.379-153.6v0c-0.19 0.003-0.348 0.141-0.378 0.322-0.226 1.162-1.225 1.814-1.919 2.649-5.418 6.501-10.914 13.008-16.377 19.562l-62.734 74.885q-36.992 44.133-73.996 88.27c-4.661 5.559-2.754 4.453-9.375 4.453-229.781 0-416.206 0-646.040 0h-3.62c-0.058 0-0.126-0.001-0.194-0.001-6.591 0-12.787 1.696-18.176 4.673q-18.156 9.655-22.027 30.25c-0.101 1.209-0.577 2.292-1.308 3.152-0.065 0.061-0.109 0.158-0.112 0.263v756.8c-0.007 0.029-0.012 0.059-0.012 0.093s0.004 0.064 0.013 0.096c0.649 1.021 1.137 2.215 1.396 3.493 3.068 18.482 18.189 32.085 34.608 34.438 0.416 0.136 0.777 0.335 1.090 0.592 0.024 0.003 0.057 0.008 0.092 0.008s0.068-0.005 0.098-0.014l930.877 0.001c0.001 0 0.003 0 0.004 0 0.094 0 0.178-0.032 0.245-0.088 1.189-0.953 2.711-0.563 4.054-0.899 11.609-2.714 21.168-9.949 26.903-19.702 2.656-4.531 4.648-9.021 4.897-14.135 0-0.283 0.271-0.544 0.443-0.813 0.032-0.054 0.053-0.12 0.053-0.193 0-0.005 0-0.009 0-0.015v-761.981c0.002-0.016 0.003-0.032 0.003-0.048s-0.001-0.032-0.003-0.050c-0.225-0.92-0.477-1.829-0.672-2.752s-0.26-1.93-0.521-2.849c-2.106-7.451-6.071-13.805-11.367-18.75-7.448-7.182-17.566-11.592-28.711-11.592-0.247 0-0.494 0.002-0.742 0.007-47.478 0.075-52.726-0.001-100.244-0.001-1.214 0-2.427 0-3.643 0-0.737-0.086-1.398-0.22-2.040-0.401-0.086-0.020-0.215-0.172-0.215-0.356v-4.54q0-89.876 0-179.74c0-1.572 0-3.143 0.053-4.704-0.006-0.212-0.177-0.379-0.39-0.379-0.008 0-0.016 0-0.024 0.001zM819.705 458.734c-3.25 182.534-154.017 329.053-338.86 323.992-179.858-4.943-324.88-154.582-320.001-338.872 3.564-88.747 36.636-164.695 100.053-226.833 61.628-60.384 144.479-94.297 234.832-93.137q136.046 3.989 231.676 100.801c57.138 59.108 92.347 139.729 92.347 228.571 0 1.928-0.018 3.851-0.049 5.77zM430.615 708.22c0.352 0.197 0.762 0.352 1.193 0.449q57.097 0.006 114.161 0.006c0.604-0.061 1.147-0.162 1.676-0.308-0.071-1.066-0.006-2.15-0.071-3.233q-0.976-14.718-2.006-29.438c-0.618-8.846-1.255-17.678-1.888-26.523q-0.454-6.501-0.877-13.093-1.237-18.903-2.461-37.805-1.084-15.813-2.167-31.628-1.485-21.991-2.98-43.984-1.084-15.998-2.167-31.984-1.473-21.806-2.949-43.616-1.084-15.998-2.167-31.984-1.473-21.806-2.949-43.616c-0.401-5.929-0.858-11.848-1.29-17.929-0.733-0.127-1.623-0.225-2.526-0.28q-32.334-0.003-64.608-0.003c-0.824 0-1.647 0.107-2.7 0.183-0.237 2.796-0.521 5.418-0.683 8.053-0.598 9.213-1.084 18.425-1.747 27.627-0.846 12.843-1.747 25.689-2.612 38.532q-0.443 6.501-0.858 13.084-1.237 19.456-2.461 38.9-1.084 16.724-2.167 33.448-1.473 22.546-2.96 45.079-1.084 16.541-2.167 33.078-1.084 16.91-2.167 33.807-1.084 16.541-2.167 33.078-1.473 22.546-2.96 45.079c-0.076 1.701-0.172 3.369-0.283 5.020zM448.337 298.56c0.48 0.098 1.086 0.187 1.698 0.243 8.739 0.361 79.472 0.112 82.573-0.296 0.151-0.543 0.284-1.205 0.37-1.886 0.073-1.043 0.008-2.016 0.008-2.993q0-37.164 0-74.334v-4.498c-0.603-0.209-1.329-0.397-2.079-0.531-1.055-0.098-2.029-0.014-3.005-0.014h-75.036c-1.44 0-2.884 0-4.529 0.088-0.141 0.858-0.302 1.527-0.356 2.167s0 1.45 0 2.167q0 37.934 0 75.784c-0.054 0.377-0.087 0.815-0.087 1.259 0 1.014 0.16 1.99 0.462 2.905z"/>
<glyph unicode="" glyph-name="editeur" d="M995.952 460.859l5.634 1.295s-3.234 13.997-7.188 31.376c-0.919 3.932-2.439 7.395-4.481 10.487-10.659 51.785-4.1 107.833 18.942 155.388l15.142 3.029-12.495 63.048-2.223-0.448-319.726 45.014c-35.164 4.952-91.925 3.503-126.859-3.273l-427.382-82.922c-55.613 2.878-108.498-31.278-126.217-86.661-3.786-11.427-5.969-24.579-5.969-38.238 0-38.738 17.55-73.376 45.135-96.395-29.405-23.22-48.264-58.869-48.264-98.922 0-39.775 18.597-75.205 47.573-98.071-28.916-23.39-47.461-58.878-47.461-98.699 0-55.692 36.279-102.914 86.494-119.319l309.075-98.75c16.917-5.456 44.647-6.601 61.972-2.607l540.957 123.954s-3.234 14.010-7.188 31.376c-1.992 8.56-7.202 15.651-14.257 20.071-7.050 48.997 0.944 100.433 23.166 144.235l-1.869 0.942h0.164s-3.234 14.037-7.188 31.376c-2.323 9.849-8.945 17.799-17.725 21.893-6.663 47.826 1.016 97.888 22.258 140.83zM951.553 425.395c-6.051-21.566-9.53-46.329-9.53-71.907 0-11.732 0.733-23.295 2.152-34.645l-483.775-109.411c-5.668-1.262-12.239-2.067-18.969-2.235-1.718 10.525-2.624 22.673-2.624 35.033 0 34.46 7.046 67.275 19.773 97.080q0.752-1.368 1.924-1.082l499.965 114.583c-2.878-7.088-5.928-16.231-8.481-25.576zM974.047 652.348c-2.825-6.917-5.838-15.875-8.377-25.026-6.489-23.438-9.963-48.181-9.963-73.739 0-12.535 0.836-24.876 2.454-36.971-0.878 1.305-1.587 1.156-2.308 0.992l-492.476-112.742c-6.358-1.414-13.686-2.26-21.201-2.331-7.855 47.661-1.416 98.076 18.771 141.758 26.341 2.884 49.877 7.236 72.786 13.144 115.336 28.679 340.409 74.756 440.317 94.917zM70.313 577.61c10.258 32.151 44.824 50.077 76.58 39.873l176.897-59.487c9.876-4.324 44.853-17.351 104.569-15.808-2.971-7.21-6.104-16.469-8.734-25.938-6.484-23.431-9.957-48.171-9.957-73.72 0-12.668 0.856-25.138 2.504-37.351-0.088 0.865-0.008 0.304 0.075-0.253-4.3 0.767-7.973 1.685-11.544 2.822l-290.666 92.857c-24.93 8.149-42.626 31.197-42.626 58.379 0 6.66 1.063 13.071 3.026 19.073zM67.367 382.166c8.237 24.935 31.33 42.613 58.551 42.613 6.608 0 12.975-1.042 18.942-2.971-0.435 0.217 180.236-57.524 253.804-81 8.111-2.473 17.507-4.139 27.214-4.64q-3.642-10.805-6.67-21.958c-6.041-21.546-9.513-46.291-9.513-71.846 0-11.765 0.738-23.358 2.164-34.735-5.262 2.159-9.735 3.219-14.072 4.579l-290.706 92.971c-24.929 8.133-42.628 31.173-42.628 58.348 0 6.66 1.063 13.072 3.029 19.075zM107.073 108.556c-24.929 8.133-42.628 31.173-42.628 58.348 0 6.66 1.063 13.072 3.029 19.075 8.12 24.501 31.217 42.173 58.437 42.173 6.604 0 12.969-1.041 18.933-2.967-0.353 0.42 177.835-56.514 250.815-79.774 8.785-2.811 20.461-4.486 32.151-4.884-2.741-6.749-5.685-15.531-8.174-24.507-6.488-23.439-9.963-48.184-9.963-73.743 0-10.51 0.589-20.883 1.733-31.089-5.1 2.054-9.434 3.094-13.642 4.422zM954.951 228.159c-6.041-21.546-9.512-46.291-9.512-71.847 0-11.276 0.677-22.396 1.991-33.319l-486.971-110.169c-5.783-1.295-12.48-2.116-19.345-2.275-1.414 9.486-2.152 20.453-2.152 31.593 0 36.726 8.024 71.578 22.415 102.898l503.943 114.058c-3.473-8.209-7.015-18.5-9.925-29.052z"/>
<glyph unicode="" glyph-name="utilisateur" d="M324.636 799.419v0zM391.020 583.119c-20.077 0-36.353-16.276-36.353-36.353s16.276-36.353 36.353-36.353c20.067 0 36.336 16.259 36.353 36.321 0 0.023 0 0.047 0 0.072 0 20.055-16.256 36.31-36.31 36.31-0.015 0-0.030 0-0.045 0zM606.7 510.429c0.004 0 0.009 0 0.014 0 20.077 0 36.353 16.276 36.353 36.353s-16.276 36.353-36.353 36.353c-20.077 0-36.353-16.276-36.353-36.353 0-0.015 0-0.030 0-0.045 0-20.052 16.256-36.308 36.31-36.308 0.010 0 0.020 0 0.030 0zM756.078 199.501c-97.607 40.691-120.786 54.812-120.786 54.812h-5.553c77.849 32.917 122.016 90.598 122.016 90.598 41.469 54.967 77.341 122.963 77.341 197.038 0.028 181.321-135.726 328.452-317.088 328.452-74.016 0-135.245-28.185-187.327-70.936 0.155 0.127 0.183 0.141 0 0-0.525-0.552-2.021-1.881-4.24-3.746 2.12 1.951 3.606 3.306 4.085 3.719q-8.085-6.77-15.971-13.909c-16.962-14.246-41.199-34.473-43.561-37.227-37.087-42.938-60.422-150.594-58.711-150.227-3.129-16.759-4.991-36.112-5.13-55.875-0.001-74.212 28.184-142.321 69.536-197.288 0 0 39.744-57.467 129.323-90.612h-11.306s-23.166-14.134-120.786-54.797c0 0-243.099-53.565-244.061-353.102h976.285c-11.194 272.172-244.061 353.102-244.061 353.102zM238.404 542.073c-3.040 97.352 56.833 170.141 78.485 186.988 70.865 29.822 249.826-176.897 97.635 39.332 60.28-74.668 152.417-122.722 255.861-122.722 31.514 0.162 61.881 4.8 90.587 13.303 14.484-35.917 29.579-65.994 29.579-107.729 0-150.849-127.642-282.673-278.547-282.673s-268.907 122.695-273.6 273.501z"/>
<glyph unicode="" glyph-name="num_0" d="M0.001 358.406c0 142.591 49.403 262.728 149.335 362.659s221.192 149.335 362.672 149.335c142.591 0 262.728-49.403 362.659-149.335s149.335-220.067 149.335-362.659c0-140.355-49.403-261.617-149.335-361.547s-220.067-150.458-362.659-150.458c-141.478 0-262.74 50.526-362.672 150.458s-149.335 221.192-149.335 361.547zM695.021 229.279v252.637c0 115.64-85.332 178.521-183.014 178.521-94.323 0-183.014-62.879-183.014-178.521v-252.637c0-115.653 88.692-178.532 183.014-178.532 97.683 0 183.014 62.879 183.014 178.532zM583.864 230.402c0-49.403-26.949-80.849-71.856-80.849-43.797 0-72.98 31.446-72.98 80.849v249.266c0 49.403 29.186 81.96 72.98 81.96 44.908 0 71.856-32.557 71.856-81.96z"/>
<glyph unicode="" glyph-name="num_1" d="M0 358.405c0 142.591 49.403 262.728 149.335 362.659s221.192 149.335 362.672 149.335c142.591 0 262.728-49.403 362.659-149.335s149.335-220.067 149.335-362.659c0-140.355-49.403-261.617-149.335-361.547s-220.067-150.458-362.659-150.458c-141.478 0-262.74 50.526-362.672 150.458s-149.335 221.192-149.335 361.547zM582.74 75.446v561.409h-102.178l-114.517-99.932v-108.91l114.517 97.683v-450.252z"/>
<glyph unicode="" glyph-name="num_2" d="M0.001 358.406c0 142.591 49.403 262.727 149.334 362.659s221.191 149.334 362.672 149.334c142.591 0 262.727-49.403 362.659-149.334s149.334-220.068 149.334-362.659c0-140.355-49.403-261.617-149.334-361.547s-220.068-150.458-362.659-150.458c-141.479 0-262.739 50.526-362.672 150.458s-149.334 221.191-149.334 361.547zM696.145 75.447v94.323h-224.565l160.561 186.387c38.176 52.764 64.003 75.23 64.003 133.613 0 102.179-75.23 167.294-176.283 167.294-99.932 0-177.408-63.991-177.408-168.417h106.674c0 55.023 33.681 74.105 70.733 74.105 43.796 0 70.733-30.322 70.733-71.856 0-26.949-12.351-44.92-31.434-70.733l-216.709-250.39v-94.323z"/>
<glyph unicode="" glyph-name="num_3" d="M-0.001 358.406c0 142.591 49.403 262.727 149.334 362.659s221.191 149.334 362.672 149.334c142.591 0 262.727-49.403 362.659-149.334s149.334-220.068 149.334-362.659c0-140.355-49.403-261.617-149.334-361.547s-220.068-150.458-362.659-150.458c-141.479 0-262.739 50.526-362.672 150.458s-149.334 221.191-149.334 361.547zM702.876 228.153c0 70.733-33.681 111.159-75.23 134.736 37.052 21.33 68.498 57.271 68.498 123.509 0 98.808-78.601 170.665-183.015 170.665-99.932 0-183.028-65.115-183.028-169.541h108.923c3.358 44.908 30.31 71.856 74.105 71.856 40.413 0 72.98-28.060 72.98-77.466 0-41.549-21.342-75.23-76.354-75.23h-15.722v-93.199h15.722c55.011 0 85.331-34.805 85.331-83.083 0-55.023-34.805-84.207-80.837-84.207-44.92 0-78.601 24.701-81.972 79.713h-108.91c0-127.991 94.31-177.396 190.883-177.396 104.413 0 188.623 58.383 188.623 179.644z"/>
<glyph unicode="" glyph-name="mesure_conservatoire" d="M1001.887 414.802c0.145 0.145 0.145 0.145 0.307 0.307 13.782 13.782 21.806 33.309 21.806 53.443 0 42.093-34.215 76.458-76.458 76.458h-536.759c-8.939 0-16.36 4.699-20.599 13.325-4.386 8.78-2.723 18.625 4.386 25.895l88.277 88.277c26.046 26.046 29.684 67.537 8.626 98.423 0 0-0.145 0.145-0.145 0.145-11.958 18.48-31.347 30.287-53.152 32.552-0.145 0-0.307 0-0.457 0-3.638 0.602-7.421 0.753-11.059 0.753-17.867 0-35.13-6.361-48.751-18.313 0 0-0.145-0.145-0.145-0.145l-263.453-218.637c-72.671-59.511-114.311-148.085-114.311-242.865v-136.721c0-72.982 28.459-142.182 80.249-195.168 50.424-51.635 119.774-80.091 195.023-80.091h247.259c0.145 0 0.145 0 0.307 0 19.685-0.457 38.455 6.964 52.988 21.202 14.69 14.384 23.163 33.923 23.163 54.047 0 26.794-13.469 50.72-35.877 64.194-4.095 2.425-6.049 7.275-4.699 11.806 1.206 4.543 5.446 7.721 10.144 7.721h2.425c42.842 0 76.458 33.612 76.458 76.458 0 26.794-13.469 50.72-35.877 64.194-4.095 2.425-6.049 7.275-4.699 11.806 1.206 4.543 5.446 7.721 10.144 7.721h2.425c42.842 0 69.044 33.612 69.044 76.458 0 26.794-6.049 50.72-28.459 64.194-4.095 2.425-13.325 7.275-12.119 11.806s5.446 7.721 10.144 7.721h290.704c21.045 0.307 39.37 8.169 53.152 23.010z"/>
<glyph unicode="" glyph-name="num_4" d="M0 358.406c0 142.591 49.403 262.727 149.334 362.659s221.191 149.334 362.672 149.334c142.591 0 262.727-49.403 362.659-149.334s149.334-220.068 149.334-362.659c0-140.355-49.403-261.617-149.334-361.547s-220.068-150.458-362.659-150.458c-141.479 0-262.739 50.526-362.672 150.458s-149.334 221.191-149.334 361.547zM670.319 156.296v96.558h-50.526v104.426h-98.808v-104.426h-117.888l193.119 384.001h-111.159l-192.007-384.001v-96.558h227.936v-80.849h98.808v80.849z"/>
<glyph unicode="" glyph-name="num_5" d="M-0.001 358.406c0 142.591 49.403 262.727 149.334 362.659s221.191 149.334 362.672 149.334c142.591 0 262.727-49.403 362.659-149.334s149.334-220.068 149.334-362.659c0-140.355-49.403-261.617-149.334-361.547s-220.068-150.458-362.659-150.458c-141.479 0-262.739 50.526-362.672 150.458s-149.334 221.191-149.334 361.547zM690.525 255.103c0 55.011-6.732 108.91-50.526 153.818-25.825 23.59-63.991 39.3-110.035 39.3-40.413 0-72.98-13.474-86.457-30.31v124.633h232.418v95.434h-327.853v-326.742h95.434c7.869 22.466 29.199 47.167 70.745 47.167 50.514 0 69.61-39.3 69.61-103.303 0-37.052-2.247-66.25-23.578-87.581-12.351-12.351-28.073-17.972-49.403-17.972-41.549 0-65.127 25.825-70.733 69.622h-105.55c3.371-40.425 12.351-83.083 48.279-119.025 23.578-25.812 68.498-46.032 128.004-46.032 61.753 0 102.179 20.219 129.115 47.156 40.425 43.796 50.526 86.457 50.526 153.83z"/>
<glyph unicode="" glyph-name="num_6" d="M0.001 358.406c0 142.591 49.403 262.727 149.334 362.659s221.191 149.334 362.672 149.334c142.591 0 262.727-49.403 362.659-149.334s149.334-220.068 149.334-362.659c0-140.355-49.403-261.617-149.334-361.547s-220.068-150.458-362.659-150.458c-141.479 0-262.739 50.526-362.672 150.458s-149.334 221.191-149.334 361.547zM691.649 232.649c0 107.785-74.105 172.911-151.581 172.911-13.461 0-30.31-2.247-43.784-7.869l120.137 240.286h-114.517l-122.398-250.39c-26.936-55.011-49.403-102.179-49.403-156.067 0-114.53 76.354-179.656 180.78-179.656 103.29 0 180.768 66.25 180.768 180.78zM587.235 232.649c0-55.023-31.446-84.207-76.354-84.207s-76.354 29.186-76.354 84.207c0 53.888 31.434 85.331 76.354 85.331s76.354-34.805 76.354-85.331z"/>
<glyph unicode="" glyph-name="num_7" d="M0.001 358.406c0 142.591 49.403 262.727 149.334 362.659s221.191 149.334 362.672 149.334c142.591 0 262.727-49.403 362.659-149.334s149.334-220.068 149.334-362.659c0-140.355-49.403-261.617-149.334-361.547s-220.068-150.458-362.659-150.458c-141.479 0-262.739 50.526-362.672 150.458s-149.334 221.191-149.334 361.547zM697.27 544.781v92.076h-358.175v-180.768h98.808v88.693h148.211l-183.015-469.334h111.159z"/>
<glyph unicode="" glyph-name="appariteur" d="M689.8 858.4v0c-55.5-18.1-100.9-56.7-127.9-108.5-26.5-51.9-31.2-111.2-13.2-166.6 28.9-89.9 111.9-150.8 206.1-151.4 2.4-0.1 4.4-1.4 5.1-3.6l61.3-189.7 0.2 0.1 1.7-5.3-97.7-33.2c-20.9-6.8-32.4-29.4-25.9-50.4 6.9-21 29.5-32.5 50.5-26l97.7 33.2 1.7-5.3-0.2-0.1 16.7-51.6-0.2-0.1 2.2-6.9-102.2-34.7c-20.9-6.8-32.4-29.4-25.9-50.4 3.6-10.5 10.9-18.7 20.1-23.4 9.1-4.7 20.1-5.9 30.4-2.6l102.5 34.8 0.1-0.2 0.2 0.1 3.1-9.5c5.4-16.7 16.9-30.3 32.5-38.2l0.1-0.1c15.6-8 33.4-9.3 49.9-3.8 34.4 11 53.3 48 42.2 82.5l-136 420.5c-0.6 2.3 0 4.6 1.9 6 76.1 56 107.6 153.8 78.5 243.5-18.1 55.7-56.6 101-108.7 127.6-0.1 0.1-0.1 0.1-0.1 0.1-52.1 26.5-111.2 31.2-166.7 13.2v0zM689.9 683c18.6 36.4 63.2 51 99.7 32.3 36.4-18.6 51-63.2 32.3-99.7-18.6-36.4-63.2-51-99.7-32.3-36.4 18.5-50.9 63.3-32.3 99.7zM415.5 122.5h-44.5c-2.1 0.2-4.2 0.4-6.3 0.6v71.9c44.2 22.6 81.4 63.3 107.7 117.7 8.7 3.4 16.2 10.8 22.2 22 9 16.9 15.3 44.4 16.9 73.6 1.6 29.5-2.1 53.9-9.8 65.4-1.1 1.7-2.4 3.2-3.8 4.6 1.2 23 1.7 40.3 1.8 56 0.3 4.4 0.4 9.3 0.4 14.2 0 11.8-0.9 23.6-2.6 35.2-4.7 44.5-17.5 76.4-40.1 100.3-15.4 16.3-34.9 28.4-59.6 37-4.4 2.5-8.9 4.9-13.6 7.2-31.2 15.4-64 12.9-95.8 10.4-2.9-0.2-5.7-0.4-8.5-0.6-2.8 0.2-5.6 0.4-8.4 0.6h-0.1c-31.5 2.5-64.1 5-95.2-10.3-4.6-2.3-9.2-4.7-13.6-7.2-25.3-8.8-45.1-21-60.5-37.4-19.9-21.2-32.3-49.8-37.9-87.3-5.7-24.2-6.9-50.2-3.5-77.5 0.3-12 0.9-24.9 1.8-40.6-1.3-1.3-2.5-2.7-3.5-4.3v0c-7.8-11.5-11.8-35.4-10.7-64 1.1-28.4 7-55.5 15.7-72.5 6.6-12.8 15-21.2 25.1-24.8 18.5-38.3 43.1-70.8 71-93.9 11.1-9.3 23.3-17.4 36.3-24.1v-71.5c-1.9-0.2-3.9-0.4-5.9-0.6h-37.2c-84.7-0.1-153.3-68.7-153.3-153v-123.2h568.4v123.2c0 84.3-68.6 152.9-152.9 152.9zM253.8 209l-29.9 8.3c-56.8 22.4-90.8 75.4-109.2 116l-4.3 9.2-10.1 0.2c-1.2 0-6.6 3.3-11.9 19-5.5 16-8.6 38.6-8.2 60.4 0.3 19.8 3.2 31.3 4.7 35.2l6.3 3.2c7.4-1.8 11.9-6.1 14.9-14.1 2-5.4 7.3-8.7 13-8.1 5.8 0.6 10.3 4.8 11.2 10.6 7.9 50.5 21.8 105.7 64.5 132.5 5.4 3.4 16.3-2 29-8.2 15.3-7.5 34.4-16.9 56.2-16.9 22.7 0 43.4 9.4 60 17 8.9 4 22.3 10.1 25.4 8.2 43.1-27.1 56.7-81.3 65.1-135.9 0.8-5.6 5.2-9.6 10.8-10s10.4 2.9 12 8.2c3 9.7 7.9 14.9 16.4 16.8l5.3-5.3c0.7-1.5 4.6-10.7 4.4-34.9-0.1-22.2-3.8-45.8-9.5-61.6-4.1-11.3-8.1-15.4-9.2-16.1h-10l-4.3-9.5c-36.6-80.4-97.3-126.5-166.3-126.5h-0.2c-8.7 0.2-17.5 0.9-26.1 2.3zM331.5 181.7v-77.3l-49-48.4-55.8 54.4v71.8c16.7-5 34.8-7.7 52.7-7.7h0.8c17.5 0 34.7 2.4 51.3 7.2z"/>
<glyph unicode="" glyph-name="enseignant_prof" horiz-adv-x="1040" d="M506.294 488.866c-43.424 23.501-120.795 34.623-156.675-3.965-10.832 3.095-22.631 4.642-34.43 4.642-11.606 0-23.018-1.547-34.043-4.546-35.977 38.492-113.251 27.37-156.579 3.869-1.838-0.967-2.998-2.901-2.998-5.029v-29.981c0-2.611 1.741-4.836 4.255-5.513 4.836-1.257 7.737-2.611 9.961-4.836-2.321-22.051 4.739-44.972 19.246-61.703 15.184-17.505 37.428-27.080 62.767-27.080 28.627 0 52.709 11.992 67.796 33.656 13.54 19.536 17.892 44.585 11.799 66.926 5.416 0.87 11.219 1.257 17.022 1.257h0.677c0 0 0 0 0.097 0h0.29c5.996 0 11.992-0.484 17.892-1.354-5.996-22.341-1.741-47.389 11.896-66.926 15.087-21.664 39.169-33.656 67.893-33.656 25.242 0 47.583 9.575 62.767 27.080 14.507 16.731 21.664 39.556 19.246 61.703 2.224 2.224 5.223 3.578 9.865 4.836 2.515 0.677 4.255 2.901 4.255 5.513v29.981c0 2.224-1.161 4.159-2.998 5.126zM465.287 434.417c0-24.468-18.279-50.484-52.225-50.484s-52.225 26.016-52.225 50.484c0 12.283 4.449 23.405 12.476 31.529 9.284 9.381 23.018 14.314 39.749 14.314s30.465-4.932 39.749-14.314c8.027-8.124 12.476-19.343 12.476-31.529zM270.023 434.417c0-24.468-18.279-50.388-52.225-50.388s-52.225 26.016-52.225 50.484c0 12.283 4.449 23.405 12.476 31.529 9.284 9.381 23.018 14.314 39.749 14.314s30.561-4.932 39.749-14.314c8.124-8.221 12.476-19.439 12.476-31.625zM495.172-153.6v303.293l-25.822 2.031-59.769 4.932v16.054c30.465 14.41 57.158 35.494 78.048 61.413 3.288 1.161 6.383 2.321 9.575 3.578 6.286 35.3 30.078 93.812 115.379 127.371 0.097 0.387 0.193 0.677 0.387 1.064 17.505 58.221 17.022 128.048 16.635 195.554 0 9.961-0.097 20.116-0.097 30.078v1.741c0 74.276-32.883 144.006-92.651 196.425-59.285 51.935-138.010 80.465-221.57 80.465s-162.285-28.53-221.473-80.465c-59.769-52.322-92.651-122.052-92.651-196.328v-0.193l7.834-203.775c-0.193-5.223-0.484-29.884 14.217-59.092 14.41-28.627 46.713-67.989 118.377-93.232 22.341-28.724 51.645-51.645 85.398-66.635v-13.83l-64.798-4.932c0 0 0 0-0.097 0l-44.295-3.288c-46.713-3.192-88.299-20.6-117.797-47.003v-256.193h629.12v0.967h-133.948zM122.246 372.617v161.608c30.465-1.161 123.309-2.998 205.322 12.476 78.821 14.797 146.037 44.295 181.821 66.442l-0.387-39.266v-201.164c0-106.675-86.752-193.427-193.427-193.427-106.481-0.097-193.33 86.752-193.33 193.33zM167.894-50.794c0-11.122-9.091-20.213-20.213-20.213h-68.28c-11.122 0-20.213 9.091-20.213 20.213v46.422c0 11.122 9.091 20.213 20.213 20.213h68.28c11.122 0 20.213-9.091 20.213-20.213v-46.422zM315.285-36.093l-125.727 162.091 52.032 4.062c7.157 0.58 12.669 6.48 12.669 13.733v16.538c19.536-5.609 40.039-8.704 61.413-8.704 23.018 0 45.262 3.578 66.345 10.155v-17.989c0-7.157 5.513-13.153 12.669-13.733l47.196-3.869-126.598-162.285zM1040.054 143.020v111.607h-52.612c0 61.606-50.001 111.607-111.607 111.607s-111.607-50.001-111.607-111.607h-186.076v-111.607h260.449v37.235h74.372v-37.235h127.081zM801.463 254.627c0 41.103 33.269 74.372 74.372 74.372s74.372-33.269 74.372-74.372h-148.745zM1040.054 105.882h-126.985v-37.235h-74.469v37.235h-260.352v-260.449h461.806z"/>
<glyph unicode="" glyph-name="parents" d="M883.496 198.104c67.243-1.474 102.949 8.845 91.881 43.146 20.837-12.433 32.741-14.824 48.623-11.398-57.136 26.974-46.905 144.781-61.781 251.223-1.447 19.353-4.385 37.217-8.744 54.513l0.474-2.202c-18.598 75.183-69.901 113.467-124.358 128.955-8.073 2.628-17.743 4.862-27.668 6.27l-0.944 0.105c-9.247 1.312-19.94 2.056-30.802 2.067h-3.227c-0.046 0-0.105 0-0.147 0-10.803 0-21.45-0.744-31.849-2.202l1.195 0.147c-10.856-1.526-20.511-3.753-29.834-6.731l1.254 0.356c-54.494-15.489-105.781-53.772-124.356-128.979-3.904-15.115-6.857-32.964-8.241-51.261l-0.063-1.069c-14.866-106.41-4.634-224.225-61.781-251.223 15.872-3.418 27.747-1.069 48.583 11.398-11.091-34.365 25.238-44.752 93.579-43.172-108.294-20.901-126.183-68.098-129.066-127.919-1.027-15.033-0.836-30.676-0.836-46.401l487.858 0.734v8.66c0.147 77.055 0.273 139.934-129.768 164.993zM648.753 356.578l-1.782 3.915-4.299 0.105c-10.882 0.243-21.827 30.606-21.693 60.114 0.088 18.26 4.55 26.189 6.815 26.231 1.74 0 6.354 0.105 22.54 9.96l15.162 0.315c7.15 0.147 16.018 1.692 25.413 4.299l-3.213-1.657 20.156-3.46c5.641-0.986 12.14-1.531 18.766-1.531 0.231 0 0.46 0.001 0.692 0.004h-0.030c43.784 0 100.197 20.243 129.043 46.276 5.976-29.082 32.73-50.694 53.236-54.103 3.213-0.55 8.141-14.153 6.144-38.224-2.369-28.427-11.972-48.247-19.12-48.253h-4.378l-1.824-4.005c-24.008-52.733-62.466-85.107-106.997-90.759h-28.603c-59.233 7.392-91.566 59.053-106.033 90.782zM722.024 201.712c0 5.263 0 24.688-0.063 40.195 0 5.786 0 11.044 0 14.808h10.38c11.007-3.46 23.672-5.436 36.8-5.436s25.799 1.992 37.719 5.683l-0.902-0.231h11.091v-19.521c0-14.824 0-31.442 0-35.425v-4.215l4.201-0.356c28.846-2.421 53.781-6.060 75.159-11.044-11.506-38.853-64.29-68.229-127.68-68.229-63.322-0.044-115.929 29.132-127.744 67.767 21.716 5.179 47.24 8.956 76.875 11.463l4.201 0.356zM718.635 414.586c0-8.744-7.102-15.843-15.843-15.843s-15.843 7.102-15.843 15.843c0 8.744 7.102 15.843 15.843 15.843s15.843-7.102 15.843-15.843zM828.444 398.744c0.006 0 0.014 0 0.020 0 8.744 0 15.843 7.102 15.843 15.843s-7.102 15.843-15.843 15.843c-8.744 0-15.843-7.102-15.843-15.843v0c0-8.744 7.090-15.831 15.83-15.843h0.001zM499.8 82.365c-1.069 32.056-5.568 61.707-24.512 85.895-26.842 34.281-80.075 53.928-167.307 61.717 0 7.898 0 23.629 0 38.182 0 9.499 0 18.472 0 24.385 33.778 16.28 62.466 47.030 82.591 89.639 4.907 1.321 10.673 5.169 15.746 14.652 13.398 25.098 16.627 82.399 5.588 98.903-1.040 1.607-2.328 2.953-3.837 4.010l-0.047 0.021c0.836 15.704 1.447 30.693 1.474 44.883 0.221 3.208 0.34 6.98 0.34 10.756 0 8.786-0.654 17.415-1.945 25.838l0.111-0.944c-3.040 29.544-11.088 54.242-28.747 72.905-10.965 11.593-25.182 20.401-43.167 26.623q-4.994 2.831-10.338 5.473c-24.334 11.972-51.267 8.471-76.007 6.689-24.752 1.782-51.311 5.28-75.601-6.69-3.584-1.76-7.025-3.586-10.38-5.48-18.388-6.268-32.805-15.159-43.801-26.842-15.468-16.459-23.463-37.998-27.153-63.091-4.181-17.603-5.053-36.611-2.553-56.68 0.273-10.825 0.818-21.98 1.497-33.401-1.489-1.069-2.747-2.369-3.753-3.851l-0.027-0.063c-11.259-16.348-8.954-71.688 4.026-97.051 5.632-10.923 12.307-15.205 17.91-16.627 13.772-29.153 32.056-53.685 53.026-70.976 8.516-7.147 18.137-13.44 28.453-18.546l0.844-0.375c0-7.066 0-18.26 0-29.55 0-12.892 0-25.851 0-32.761-87.237-7.81-140.461-27.447-167.3-61.694-24.931-31.807-24.82-73.135-24.763-116.893 0-7.635 0-15.537-0.105-23.463l-0.063-4.465 500.244-0.574-0.063 4.466c0 0.986 0 1.959 0 2.957h0.132c0 18.065 0.22 35.489-0.529 52.021zM120.412 390.934l-1.698 3.763-4.138 0.088c-5.095 0.111-10.254 6.69-14.126 18.065-4.299 12.653-6.735 30.32-6.437 47.24 0.263 17.381 3.213 26.189 4.97 28.447l6.799-0.734-0.506 7.192c18.808-2.155 22.311-18.43 22.54-42.486 6.605 52.859 14.949 106.955 55.027 132.117 13.356 8.367 36.756-18.053 67.033-18.053s56.898 24.532 67.243 18.053c40.069-25.15 48.414-79.273 55.027-132.117 0.189 24.050 3.695 40.32 22.54 42.486l-0.398-7.108 6.731 0.661c1.74-2.31 4.634-11.529 4.512-29.795-0.111-17.272-2.957-35.749-7.444-48.205-3.565-9.876-7.989-15.775-11.881-15.775h-4.246l-1.74-3.851c-28.579-62.588-76.019-98.48-130.271-98.48-0.039 0-0.093 0-0.146 0-7.44 0-14.704 0.65-21.785 1.908l0.743-0.105-22.883 6.36c-45.875 17.978-72.443 61.694-85.477 90.307zM249.941 279.291c0.063 0 0.147 0 0.215 0 17.675 0 34.563 3.46 49.987 9.741l-0.894-0.315c0-5.641 0-12.892 0-20.527 0-17.801 0-37.428-0.063-42.208v-2.328l-47.392-46.821-50.637 49.328c0 4.465 0 20.611-0.063 36.656 0 9.374 0 18.725 0 25.685 14.357-5.817 31.002-9.205 48.428-9.205 0.147 0 0.273 0 0.418 0.001h-0.021zM241.493 439.91l1.866 23.379c1.877 1.027 4.127 1.615 6.493 1.615 2.244 0 4.369-0.524 6.235-1.489l-0.075 0.031 1.871-23.547c0.65-8.073 5.683-14.72 12.629-14.72h72.443c6.941 0 12.254 6.647 12.608 14.72l1.657 35.959c0.356 8.073-5.683 14.962-12.608 14.72l-76.762-2.705c-7.108-0.482-12.685-6.365-12.685-13.557 0-0.405 0.021-0.818 0.063-1.224l-0.007 0.060 0.175-2.155c-1.615 0.519-3.477 0.815-5.407 0.815-2.16 0-4.239-0.364-6.167-1.052l0.133 0.038 0.189 2.334c0.025 0.356 0.059 0.771 0.059 1.182 0 7.189-5.576 13.062-12.643 13.533l-0.042 0.004-76.743 2.664c-6.941 0.273-13.003-6.622-12.629-14.695l1.657-35.959c0.356-8.096 5.683-14.72 12.629-14.72h72.431c6.941 0.020 11.972 6.667 12.629 14.74zM268.073 479.908l76.743 2.707c2.884 0.105 5.724-2.859 5.568-6.272l-1.657-36.001c-0.189-3.67-2.411-7.149-5.766-7.149h-72.387c-3.477 0-5.5 3.783-5.807 7.444l-2.663 33.275c-0.331 3.565 3.334 5.874 5.963 5.976zM150.668 440.329l-1.657 36.001c-0.155 3.418 2.684 6.381 5.568 6.272l76.743-2.707c2.641-0.105 6.292-2.411 6.018-5.976l-2.663-33.275c-0.286-3.67-2.328-7.444-5.807-7.444h-72.431c-3.376 0-5.611 3.46-5.766 7.149z"/>
<glyph unicode="" glyph-name="eleve" horiz-adv-x="976" d="M300.765 799.421v0zM367.151 583.119c-20.077 0-36.352-16.275-36.352-36.352s16.275-36.352 36.352-36.352c20.067 0 36.336 16.259 36.352 36.322v0.002c0 0.021 0 0.046 0 0.071 0 20.053-16.256 36.309-36.309 36.309-0.015 0-0.030 0-0.045 0h0.002zM582.831 510.429c0.004 0 0.009 0 0.014 0 20.077 0 36.352 16.275 36.352 36.352s-16.275 36.352-36.352 36.352c-20.077 0-36.352-16.275-36.352-36.352 0-0.015 0-0.030 0-0.045v0.002c0-20.053 16.256-36.309 36.309-36.309 0.010 0 0.020 0 0.030 0h-0.002zM732.21 199.502c-97.607 40.691-120.787 54.81-120.787 54.81h-5.555c77.848 32.917 122.016 90.597 122.016 90.597 41.468 54.966 77.34 122.963 77.34 197.038 0.028 181.321-135.726 328.453-317.089 328.453-74.018 0-135.245-28.183-187.328-70.937 0.155 0.127 0.184 0.141 0 0-0.523-0.551-2.021-1.88-4.24-3.745 2.12 1.95 3.604 3.307 4.085 3.717q-8.084-6.77-15.971-13.908c-16.96-14.247-41.2-34.472-43.56-37.228-37.087-42.938-60.422-150.594-58.711-150.227-3.129-16.76-4.99-36.113-5.13-55.874l-0.001-0.124c0-74.089 28.183-142.199 69.538-197.165 0 0 39.744-57.468 129.323-90.611h-11.307s-23.165-14.134-120.787-54.796c0 0-243.099-53.567-244.061-353.102h976.285c-11.194 272.172-244.061 353.102-244.061 353.102zM214.535 542.074c-3.039 97.353 56.832 170.141 78.484 186.989 70.866 29.822 249.827-176.897 97.636 39.334 60.28-74.668 152.418-122.723 255.862-122.723 31.514 0.163 61.881 4.799 90.586 13.303l-2.293-0.583c16.777-35.334 31.871-65.411 31.871-107.148 0-150.849-127.641-282.674-278.547-282.674s-268.908 122.695-273.6 273.501z"/>
<glyph unicode="" glyph-name="entreprise" d="M1009.588 669.886l-268.856-243.952v229.621c0 7.919-6.406 14.32-14.32 14.32v0l-268.856-243.952v229.621c0 7.919-6.406 14.32-14.32 14.32v0l-253.377-212.359v356.406h-189.86v-864.404c0 0 0-0.085 0-0.085 0-25.708 20.813-46.532 46.436-46.532h930.864c0 0 0.085 0 0.085 0 25.708 0 46.615 20.813 46.615 46.615v706.040c0 7.919-6.495 14.32-14.414 14.32 0 0 0 0 0 0v0 0zM306.921 68.285h-203.376v200.267h203.376v-200.267zM632.632 68.285h-240.829v200.267h240.829v-200.267zM920.974 68.285h-205.691v200.267h205.691v-200.267z"/>
<glyph unicode="" glyph-name="academie" d="M514.763 684.173c-244.312 1.469-421.195-199.085-421.976-417.508-0.811-230.572 189.95-422.94 418.793-420.231 224.59-2.907 417.615 181.351 419.619 414.631 1.958 229.409-180.938 421.685-416.437 423.108zM511.198-53.092c-176.196 0-317.936 142.459-317.691 319.267 0.26 167.658 133.049 316.436 316.972 317.37 180.127 0.933 320.612-142.398 320.169-318.93-0.52-189.338-157.101-320.796-319.451-317.706zM577.691 733.791c3.504 0 7.65 3.060 10.328 5.845 40.453 42.304 80.724 84.823 124.283 130.723-61.292 0-118.208 0.245-175.11-0.474-4.299 0-10.435-6.12-12.423-10.787-8.645-20.318-16.080-41.126-23.945-61.766s-15.529-40.958-24.205-63.801c35.618 0 68.345-0.184 101.072 0.26zM649.954 494.559q-137.333-0.78-274.666 0c-14.55 0.092-19.722-4.039-19.569-19.155 0.689-67.32 0.291-134.763 0.306-202.144 0-68.422 0.122-136.828-0.122-205.235 0-10.71 1.178-17.411 14.688-17.35q141.969 0.612 283.939 0c11.812 0 15.024 4.743 14.825 15.667-0.49 26.745-0.658 53.55 0.077 80.234 0.352 12.699-3.932 17.059-16.83 16.83-45.257-0.597-90.53-0.383-135.788-0.184-37.577 0.153-32.421-4.055-33.492 34.318-0.383 13.54 4.024 17.84 17.61 17.641 46.283-0.719 92.581 0.184 138.863-0.566 13.77-0.214 17.947 4.407 17.534 17.763-0.826 26.714-0.887 53.55 0 80.219 0.474 13.999-4.988 17.442-18.084 17.228-41.126-0.689-82.3-0.474-123.441-0.199-36.215 0.245-31.473-4.988-32.513 33.416-0.367 13.923 3.948 18.911 18.36 18.696 49.894-0.734 99.803 0.245 149.681-0.597 14.626-0.245 18.696 4.759 18.207 18.62-0.887 25.184-1.010 50.49 0 75.598 0.704 15.284-5.11 19.278-19.584 19.201z"/>
<glyph unicode="" glyph-name="absences" d="M382.998 288.268h-312.835v214.605h23.17c0.878 0 1.589 0.711 1.589 1.589v0 269.211c0 0.878-0.711 1.589-1.589 1.589h-91.745c-0.878 0-1.589-0.711-1.589-1.589v0-822.245c0-0.878 0.711-1.589 1.589-1.589v0h66.985c0.878 0 1.589 0.711 1.589 1.589v0 270.8h247.641v-279.056c0 0 0 0 0 0 0-0.872 0.707-1.579 1.579-1.579 0.004 0 0.007 0 0.011 0h62.83c0.003 0 0.007 0 0.010 0 0.872 0 1.579 0.707 1.579 1.579 0 0 0 0 0 0v0 279.293c0.454 0.282 0.752 0.779 0.752 1.344 0 0.003 0 0.006 0 0.009v-0.001 62.863c0 0.003 0 0.007 0 0.010 0 0.868-0.7 1.572-1.568 1.579h-0.001zM976.768 608.843l-567.475-165.506c-17.093-4.982-29.118-23.276-29.118-44.288v0c0-28.109 21.076-49.518 44.31-45.008l54.757 10.651v-420.877c0.006-1.223 0.999-2.212 2.223-2.212 0 0 0 0 0 0h88.041c1.221 0 2.212 0.989 2.212 2.212v0 393.971h359.807v-394.036c0.006-1.223 0.999-2.212 2.223-2.212 0 0 0 0 0 0h88.041c1.221 0 2.212 0.989 2.212 2.212v0 620.814c0 29.558-23.181 51.3-47.231 44.278z"/>
<glyph unicode="" glyph-name="recap_cours" horiz-adv-x="1063" d="M837.399 371.542h-620.531c-0.377 0.023-0.817 0.037-1.261 0.037s-0.884-0.013-1.321-0.039l0.060 0.003c-14.336-0.692-25.698-12.484-25.698-26.929 0-14.889 12.070-26.958 26.958-26.958 0.443 0 0.884 0.011 1.322 0.032l-0.062-0.002h619.788c0.11-0.002 0.241-0.003 0.371-0.003 14.874 0 26.931 12.058 26.931 26.931 0 14.743-11.847 26.719-26.54 26.929h-0.020zM337.895 587.008h377.563c0.11-0.002 0.241-0.003 0.371-0.003 14.874 0 26.931 12.058 26.931 26.931 0 14.743-11.847 26.719-26.54 26.929h-378.083c-0.379 0.023-0.821 0.037-1.267 0.037s-0.888-0.013-1.327-0.040l0.060 0.003c-14.388-0.631-25.814-12.448-25.814-26.935 0-14.889 12.070-26.959 26.959-26.959 0.403 0 0.803 0.009 1.202 0.026l-0.057-0.002zM216.624 452.34h620.032c0.11-0.002 0.241-0.003 0.371-0.003 14.874 0 26.931 12.058 26.931 26.931 0 14.743-11.847 26.719-26.54 26.929h-620.551c-0.377 0.023-0.817 0.037-1.261 0.037s-0.884-0.013-1.321-0.039l0.060 0.003c-14.391-0.627-25.82-12.446-25.82-26.935 0-14.889 12.070-26.959 26.959-26.959 0.401 0 0.799 0.009 1.195 0.026l-0.056-0.002zM1036.216 789.017h-482.501v53.87c0.004 0.172 0.006 0.375 0.006 0.579 0 14.671-11.728 26.604-26.32 26.934l-0.031 0.001c-0.203 0.006-0.442 0.009-0.682 0.009-1.004 0-1.995-0.056-2.97-0.166l0.12 0.011c-13.559-1.533-24-12.937-24-26.78 0-0.202 0.002-0.404 0.007-0.605l-0.001 0.030v-53.882h-472.892c-0.004 0-0.008 0-0.012 0-14.875 0-26.934-12.055-26.941-26.928v-565.603c0-14.879 12.062-26.941 26.941-26.941 0.004 0 0.009 0 0.013 0h314.132l-96.011-287.435c-0.801-2.444-1.264-5.258-1.264-8.179 0-14.967 12.133-27.099 27.099-27.099 11.716 0 21.695 7.435 25.477 17.844l0.060 0.189 101.479 304.681h101.893v-121.259c0.024-14.868 12.082-26.911 26.953-26.911 14.601 0 26.491 11.61 26.94 26.103l0.001 0.041v122.026h101.893l101.467-304.681c3.809-10.659 13.819-18.149 25.579-18.149 14.967 0 27.099 12.133 27.099 27.099 0 2.969-0.477 5.827-1.36 8.5l0.055-0.191-95.95 287.423h323.718c0.004 0 0.008 0 0.012 0 14.879 0 26.941 12.062 26.941 26.941v0 565.602c-0.007 14.874-12.066 26.929-26.941 26.929-0.004 0-0.009 0-0.013 0h0.001zM1009.275 223.415h-955.381v511.732h955.381z"/>
<glyph unicode="" glyph-name="intervenants" d="M498.4 375.8c23.7 42.1 39 90.4 39.9 139 0 0.3 0 0.6 0 0.9s0 0.8 0 1.2c0 0 0 0.1 0 0.1s0 0.1 0 0.1c0 0.3 0 0.6 0 1s0 0.7 0 1c-1.9 93.8-66.9 179.6-159.6 201.1-91.3 21.5-191-21-234.5-105.5-42.5-82.5-23.5-181.6 26.3-256.5 23.3-35.2 54.3-68.3 93.3-86 44.3-20 90.8-19.2 134.6 1.8 43.1 20.8 77 60.5 100 101.8v0zM282.5 71.2v65.8c0 7.8 6.3 14.2 14.2 14.2v0h0.4c-14.2 17.4-28.1 35.2-42.2 52.6-13.4 16.7-22.3 31.1-47 32.4-20.7 1.3 1.9 1-18.7-1.8-42-5.6-78.9-21.3-111.8-47.8-52.1-41.7-77.4-106.2-77.4-171.8v-124.2c0-24 20.2-44.3 44.3-44.3h258.9v210.8h-6.4c-7.9 0-14.3 6.3-14.3 14.1v0 0zM381 71.2v0c0-7.8-6.3-14.2-14.2-14.2h-6.4v-210.6h258.9c24 0 44.3 20.2 44.3 44.3v124.1c0 65.5-25.3 130-77.3 171.7-32.9 26.5-69.8 42.2-111.8 47.8-20.5 2.8 2.1 3-18.7 1.8-24.8-1.3-33.6-15.7-47-32.4-14.2-17.5-28.1-35.2-42.2-52.6h0.4c7.8 0 14.2-6.3 14.2-14.2v-65.7h-0.2zM742.6 215.9v0c0-7.8-6.3-14.2-14.2-14.2h-6.4v-210.7h258.9c24 0 44.3 20.2 44.3 44.3v124.2c0 65.5-25.3 130-77.3 171.7-32.9 26.5-69.8 42.2-111.8 47.8-20.5 2.8 2.1 3-18.7 1.8-24.8-1.3-33.6-15.7-47-32.4-14.2-17.5-28.1-35.2-42.2-52.6h0.4c7.8 0 14.2-6.3 14.2-14.2v-65.7h-0.2zM748 864.9c-91.3 21.5-191-21-234.5-105.5-5.4-10.5-9.8-21.2-13.3-32.2 15.1-12.5 28.9-26.6 41.1-42.3 18.2-23.2 32.5-49 42.5-76.8 10.3-28.4 15.8-57.9 16.4-87.8v-6.7c-0.4-23.1-3.5-46.5-9-69.8 12.8-10.8 26.7-20 41.9-26.9 44.3-20 90.8-19.2 134.6 1.8 43.1 20.8 76.9 60.5 99.9 101.7v0c23.7 42.1 39 90.4 39.9 139 0 0.3 0 0.6 0 0.9s0 0.8 0 1.2c0 0 0 0.1 0 0.1s0 0.1 0 0.1c0 0.3 0 0.6 0 1s0 0.7 0 1c-1.8 93.9-66.8 179.6-159.5 201.2zM543.7 259.7c22.3-9.5 43.4-22.3 63-38 27.6-22.2 49.8-50.2 65.7-82.1v62.1h-6.4c-7.8 0-14.2 6.3-14.2 14.2v0 65.8c0 7.8 6.3 14.2 14.2 14.2h0.4c-14.2 17.4-28.1 35.2-42.2 52.6-13.4 16.7-22.3 31.1-47 32.4-3.1 0.2-5.3 0.3-6.7 0.5-3.1-7.1-6.4-14.1-9.9-21v-0.6l-7.1-12.8c-0.2-0.3-0.4-0.7-0.6-1l-0.2-0.3c-14.8-26.6-32.2-50.4-51.5-70.9-0.2-0.2-0.5-0.5-0.7-0.7 14.8-3.7 29.4-8.5 43.2-14.4z"/>
<glyph unicode="" glyph-name="cours_annule" d="M999.2 870.4h-974.4c-13.7 0-24.8-11.1-24.8-24.8v0 0c0 0 0 0 0 0 0-13.7 11.1-24.8 24.8-24.8h974.4c13.7 0 24.8 11.1 24.8 24.8 0 0 0 0 0 0v0c0 13.7-11.1 24.8-24.8 24.8v0 0zM999.2-104h-974.4c-13.7 0-24.8-11.1-24.8-24.8v0c0-13.7 11.1-24.8 24.8-24.8v0h974.4c13.7 0 24.8 11.1 24.8 24.8v0c0 13.7-11.1 24.8-24.8 24.8v0zM0.1 757.4v-798h1023.9v798h-1023.9zM717.2 237.7c3.8-4.1 6.1-9.5 6.1-15.5 0 0 0-0.1 0-0.1v0c0-0.1 0-0.3 0-0.4 0-5.7-2.3-10.8-6.1-14.5l-31.2-31.2c-3.7-3.8-8.8-6.1-14.5-6.1-0.1 0-0.3 0-0.4 0v0c0 0-0.1 0-0.2 0-6 0-11.4 2.3-15.4 6.1v0l-127.5 128.2-127.4-128.2c-4-3.8-9.5-6.1-15.4-6.1 0 0-0.1 0-0.1 0v0c-0.1 0-0.3 0-0.4 0-5.7 0-10.8 2.3-14.5 6.1l-31.2 31.2c-3.8 3.7-6.1 8.8-6.1 14.5 0 0.1 0 0.3 0 0.4v0c0 0 0 0 0 0.1 0 6 2.3 11.5 6.1 15.5v0l128.2 127.5-128.3 127.4c-3.8 4-6.1 9.5-6.1 15.4 0 0 0 0.1 0 0.1v0c0 0.1 0 0.3 0 0.4 0 5.7 2.3 10.8 6.1 14.5l31.2 31.2c3.7 3.8 8.8 6.1 14.5 6.1 0.1 0 0.3 0 0.4 0v0c0 0 0.1 0 0.1 0 6 0 11.4-2.3 15.5-6.1l127.4-127.3 127.5 127.5c4 3.7 9.4 6 15.4 6 0.1 0 0.2 0 0.3 0v0c0.1 0 0.3 0 0.4 0 5.7 0 10.8-2.3 14.5-6.1l31.2-31.2c3.8-3.7 6.1-8.8 6.1-14.5 0-0.1 0-0.3 0-0.4v0c0 0 0-0.1 0-0.1 0-6-2.3-11.4-6.1-15.5v0l-127.5-127.4 127.4-127.5z"/>
<glyph unicode="" glyph-name="punition" d="M433.433 427.198l9.28-139.609c2.425-36.612 29.641-64.931 62.403-64.931 32.255 0 59.252 27.51 62.293 63.523l11.778 139.403c3.703 43.786-24.006 82.953-62.839 88.938v0c-46.124 7.087-86.366-35.29-82.909-87.325zM580.693 102.385c0-41.052-33.275-74.326-74.326-74.326s-74.326 33.275-74.326 74.326c0 41.052 33.275 74.326 74.326 74.326s74.326-33.275 74.326-74.326zM1018.217-25.211l-478.957 809.252c-7.321 12.236-20.491 20.304-35.557 20.304-15.285 0-28.624-8.302-35.761-20.648l-0.105-0.196-462.402-809.275c-3.425-5.881-5.435-12.953-5.435-20.485 0-22.807 18.482-41.287 41.287-41.287 0.001 0 0.001 0 0.002 0h941.46c22.782 0.022 41.25 18.488 41.25 41.278 0 7.776-2.147 15.037-5.881 21.249l0.102-0.191zM112.439-4.966l391.923 685.862 405.922-685.862z"/>
<glyph unicode="" glyph-name="nouvel_evenement" d="M958.701 468.356h-120.724v120.724c-1.583 34.8-30.19 62.41-65.231 62.41s-63.649-27.61-65.223-62.262l-0.007-0.135v-120.724h-120.724c-3.335-0.027-6.569-0.295-9.742-0.785l0.373 0.045-1.817-0.287c-3.477-0.6-6.499-1.363-9.415-2.326l0.456 0.134-0.295-0.1c-3.458-1.162-6.364-2.402-9.151-3.833l0.372 0.178-0.337-0.169c-3.199-1.664-5.923-3.357-8.498-5.247l0.188 0.134c-16.647-11.927-27.371-31.207-27.371-52.988 0-18.735 7.937-35.626 20.627-47.49l0.437-0.389c1.479-1.367 3.029-2.674 4.637-3.901l0.777-0.588c1.496-1.099 3.029-2.154 4.626-3.13l1.196-0.724c1.474-0.875 2.994-1.683 4.541-2.439 0.521-0.252 1.044-0.509 1.581-0.757 1.465-0.67 2.975-1.278 4.49-1.817 0.621-0.237 1.278-0.488 1.902-0.689 1.479-0.506 2.994-0.89 4.526-1.278 0.707-0.186 1.396-0.402 2.117-0.556l1.465-0.295c1.099-0.202 2.225-0.352 3.35-0.509 0.67-0.083 1.278-0.237 2.003-0.302 2.098-0.241 4.53-0.38 6.995-0.388h120.734v-120.724c0.026-2.857 0.212-5.647 0.569-8.384l-0.030 0.345c0-0.287 0.083-0.556 0.134-0.825 0.402-2.91 0.921-5.44 1.581-7.907l-0.098 0.437c0.134-0.538 0.252-1.077 0.402-1.598v0c5.061-17.219 16.521-31.171 31.56-39.388l0.348-0.175c8.907-4.866 19.505-7.739 30.782-7.739 32.887 0 60.069 24.369 64.491 56.044l0.034 0.348c0 0.269 0.083 0.538 0.134 0.825 0.34 2.398 0.534 5.187 0.556 8.014v120.731h120.745c36.028 0 65.231 29.202 65.231 65.231s-29.202 65.231-65.231 65.231v0zM879.155 589.080v-79.527h46.341v142.12c0 0.006 0 0.012 0 0.017 0 15.411-12.499 27.905-27.905 27.905-0.006 0-0.013 0-0.019 0h-69.049c30.578-19.004 50.63-52.411 50.63-90.512v-0.002zM879.576 232.747h-0.471v-15.575c-0.027-5.773-0.509-11.425-1.421-16.92l0.080 0.616h0.521c-1.635-11.089-4.669-21.093-8.952-30.409l0.29 0.685v-66.056h-127.654v4.369c-12.103 3.082-22.748 7.746-32.36 13.872l0.452-0.265v-17.931h-135.627v95.711h84.93c-0.777 4.784-1.243 10.319-1.277 15.947v15.947h-83.598v60.284c-11.677 0.831-22.54 3.35-32.652 7.337l0.742-0.255v-67.366h-135.677v95.744h104.154c-8.849 8.982-16.127 19.548-21.374 31.225l-0.274 0.67h-433.556v95.744h428.915c15.626 28.384 42.535 48.914 74.52 55.709l0.724 0.134h-5.266l27.872 27.855c3.243-2.439 7.338-3.907 11.771-3.92h35.846l-21.683-21.766h8.058l21.698 21.766h19.781v39.899h-43.752v115.694c0.831 30.189 25.501 54.331 55.82 54.331 30.052 0 54.568-23.753 55.782-53.515l0.005-0.112c11.566 4.958 25.007 8.023 39.105 8.443l0.163 0.006c-5.055 48.508-45.714 86.009-95.139 86.009-52.659 0-95.369-42.551-95.624-95.146v-11.991h-239.343v11.977c0 52.881-42.858 95.744-95.744 95.744s-95.744-42.858-95.744-95.744v0-11.977h-115.694c-0.006 0-0.012 0-0.017 0-15.411 0-27.905-12.499-27.905-27.905 0-0.006 0-0.013 0-0.019v0.001-694.109c0-0.006 0-0.012 0-0.017 0-15.411 12.499-27.905 27.905-27.905 0.006 0 0.013 0 0.019 0h869.653c0.006 0 0.012 0 0.017 0 15.411 0 27.905 12.499 27.905 27.905 0 0.006 0 0.013 0 0.019v-0.001 335.156h-45.912zM163.8 511.972l23.935 23.935h47.367l-23.852-23.935zM219.645 511.972l23.935 23.935h47.367l-23.919-23.935zM578.368 544.067l-32.093-32.093h-47.367l75.543 75.543v-31.673c0.027-4.425 1.492-8.513 3.968-11.808l-0.030 0.050zM574.448 623.67v-27.687l-84.021-84.021h-47.434l111.689 111.689zM546.272 623.67l-111.689-111.689h-47.367l111.689 111.689zM490.428 623.67l-111.689-111.689h-47.367l111.632 111.706zM335.105 623.67h43.633l-43.633-43.633zM315.155 535.919c11.016 0 19.94 8.925 19.95 19.932v15.733l52.093 52.093h47.367l-111.686-111.706h-47.367l23.935 23.935zM183.516 691.501c0 30.85 25.007 55.845 55.845 55.845s55.845-25.007 55.845-55.845v0-115.694h-111.689zM144.92 548.945c2.868-7.656 10.132-13.006 18.635-13.019h15.679l-23.902-23.952h-47.367zM55.844 623.678h43.651l-43.651-43.633zM55.844 571.585l52.093 52.093h35.674v-11.723l-87.772-87.754zM55.844 515.74l87.772 87.772v-47.367l-44.121-44.154h-43.651zM206.459-14.587h-150.613v87.772h150.613zM206.459 105.095h-150.613v95.765h150.613zM206.459 232.747h-150.613v95.744h150.613zM374.987-14.587h-134.668v87.772h134.668zM374.987 105.095h-134.668v95.765h134.668zM374.987 232.747h-134.668v95.744h134.668zM542.538-14.587h-135.645v87.772h135.645zM542.538 105.095h-135.645v95.765h135.645zM710.075-14.587h-135.645v87.772h135.645zM869.653-14.587h-127.654v87.772h127.654z"/>
<glyph unicode="" glyph-name="diffuser_sondage" d="M612.794 421.024h406.824c2.418 0 4.382 1.964 4.382 4.382v0 0c0 229.017-182.037 416.492-410.902 423.289-9.216 0.151-16.768-7.252-16.919-16.316 0-0.151 0-0.151 0-0.302v-394.287c0-9.366 7.402-16.768 16.618-16.768zM483.633 333.706v465.284c-170.405 6.495-329.78-80.518-416.946-225.391-1.964-3.474-29.155-52.57-44.868-99.1-16.919-53.477-24.172-109.826-21.15-166.023 12.236-233.702 201.674-424.952 435.225-439.452 270.712-16.768 495.348 197.597 495.348 464.68h-447.61z"/>
<glyph unicode="" glyph-name="diffuser_information" d="M705.886 826.022c59.17-59.17 59.17-155.105 0-214.275s-155.105-59.17-214.275 0c-59.17 59.17-59.17 155.105 0 214.275s155.105 59.17 214.275 0zM750.148 365.145c0 63.69-51.558 115.249-115.249 115.249h-245.914c-63.69 0-115.249-51.558-115.249-115.249v0c0-63.69 51.558-115.249 115.249-115.249h80.497v-263.1c0-77.465 62.932-140.396 140.396-140.396s140.143 62.806 140.27 140.396v353.328c0 4.423-0.252 8.845-0.632 13.143 0.505 3.917 0.632 7.834 0.632 11.878v0z"/>
<glyph unicode="" glyph-name="casier" d="M993.837 870.399h-963.675c-17.237 0-30.162-12.926-30.162-30.162v-963.675c0-17.237 12.926-30.162 30.162-30.162h963.675c17.237 0 30.162 12.926 30.162 30.162v963.675c0 17.237-12.926 30.162-30.162 30.162zM571.598 148.004v-50.27c0-20.109-17.237-37.344-38.776-37.344-20.109 0-38.776 15.796-38.776 37.344v48.829c-18.667 11.488-30.162 33.033-30.162 56.012 0 37.344 30.162 67.497 67.497 67.497s67.497-30.162 67.497-67.497c1.441-22.979-10.054-43.088-27.292-54.572zM897.608 571.679c0-21.539-17.237-40.216-37.344-40.216h-693.668c-20.109 0-37.344 17.237-37.344 40.216v114.896c0 21.539 15.796 40.216 37.344 40.216h693.668c20.109 0 37.344-17.237 37.344-40.216v-114.896z"/>
<glyph unicode="" glyph-name="retard" horiz-adv-x="980" d="M674.335 625.505c15.462 0.002 30.249 2.891 43.851 8.159l-0.829-0.283c30.252 11.536 54.083 34.123 66.98 62.705l0.303 0.752c6.748 14.77 10.681 32.037 10.681 50.223 0 16.407-3.202 32.066-9.014 46.387l0.297-0.827c-18.382 47.248-62.658 77.778-112.768 77.778-16.027-0.017-31.33-3.098-45.36-8.69l0.83 0.292c-62.203-24.14-93.132-94.819-68.915-157.532 18.571-47.981 63.279-78.966 113.944-78.966zM252.683 244.711l99.112 120.456c3.445 4.162 5.535 9.556 5.535 15.437 0 7.539-3.434 14.276-8.822 18.732l-0.041 0.033-17.872 14.755-191.756 157.776c-4.166 3.446-9.562 5.537-15.448 5.537-7.543 0-14.284-3.434-18.744-8.824l-0.033-0.041-99.067-120.456c-3.441-4.167-5.528-9.562-5.528-15.445 0-7.542 3.43-14.283 8.816-18.747l0.040-0.032 209.606-172.508c4.161-3.45 9.556-5.544 15.44-5.544 7.54 0 14.277 3.438 18.729 8.831l0.033 0.041zM928.549 522.788h-90.969c-0.012 0-0.026 0-0.040 0-5.675 0-11.146 0.876-16.284 2.501l0.382-0.104-78.766 24.218c-33.026 12.447-91.967 34.147-151.763 55.979l-46.117 16.785c-58.908 21.4-112.047 40.526-133.591 47.925-27.923 9.629-51.508 3.972-72.176-17.218l-83.303-83.858c-19.47-19.592-21.544-51.586-2.84-71.888 9.345-10.135 22.688-16.462 37.509-16.462 13.64 0 26.028 5.358 35.175 14.085l-0.020-0.019 64.754 61.637c4.493 4.349 13.113 7.255 15.531 6.457 15.631-4.937 75.87-29.864 75.87-29.864s-18.582-99.267-170.534-369.778c-21.533-38.307-22.92-60.561-62.047-38.651-41.735 23.297-83.836 46.172-126.624 67.506-29.509 14.71-62.902 2.907-75.648-23.94-13.313-28.089-4.648-57.799 22.021-74.517v0l0.133-0.067c2.643-1.695 5.73-3.369 8.938-4.824l0.47-0.191 186.531-99.389c6.151-5.185 13.478-9.196 21.508-11.574l0.425-0.108 0.366-0.2v0.055c19.481-5.414 40.648-0.677 55.114 13.656 9.486 9.599 18.26 19.953 26.206 30.946l0.53 0.771c22.997 31.462 56.711 85.6 82.227 122.83 4.033-5.617 8.805-10.389 14.239-14.296l0.183-0.125 150.986-106.966 68.26-142.721c10.138-20.844 31.155-34.956 55.469-34.956 33.958 0 61.487 27.529 61.487 61.487 0 9.645-2.221 18.771-6.179 26.895l0.16-0.364-75.149 157.177c-4.674 9.628-11.455 17.585-19.781 23.514l-0.188 0.127-137.796 97.625 1.287 2.818-1.021 0.821s49.7 97.625 111.182 249.943c12.802-5.236 25.516-10.572 38.34-15.853v0.067l50.332-20.235c15.426-6.38 33.339-10.084 52.117-10.084 0.008 0 0.017 0 0.025 0h113.078s51.242 6.834 51.242 51.242c-0.032 28.276-22.961 51.187-51.242 51.187v0z"/>
<glyph unicode="" glyph-name="competence_dispense" d="M924.902 705.239v165.161h-311.561v-394.056h-208.225c-206.928-2.337-306.018-126.002-306.018-320.003 0-187.997 82.683-309.941 312.687-309.941h513.117v165.161h-1.126v5.509h-113.774v688.17zM627.616 139.559c0-52.446-42.516-94.962-94.962-94.962v0h-107.447c-52.446 0-94.962 42.516-94.962 94.962v41.29c0 52.446 42.516 94.962 94.962 94.962v0h107.447c52.446 0 94.962-42.516 94.962-94.962v0z"/>
<glyph unicode="" glyph-name="competence_absent" d="M810.556 17.067v517.275c-1.991 233.965-67.331 336.058-341.333 336.058h-341.333v-170.667h232.008c167.995 0 253.992 5.513 253.992-191.392v-31.989h-208.22c-206.91-2.416-306.009-126.001-306.009-319.996 0-188.006 82.679-309.957 312.679-309.957h512v170.667zM628.182 139.579c-0.010-52.449-42.531-94.964-94.981-94.964h-107.352c-52.447 0-94.964 42.517-94.964 94.964v0 41.28c0 52.447 42.517 94.964 94.964 94.964v0h107.352c52.451 0 94.971-42.515 94.981-94.963v-0.001z"/>
<glyph unicode="" glyph-name="tel_fax" d="M324.274 330.011h-124.27v86.634h137.111l0.517 71.78h-201.001v-377.263h63.373v147.605h124.27v71.244zM631.882 488.425l97.147-183.966-98.607-182.692-121.757 366.658h-59.696l-126.561-377.263h66.348l26.181 81.295h125.379l26.181-81.295h131.771l68.362 126.303 68.713-126.303h74.588l-104.242 195.846 96.427 181.435h-73.442l-62.043-115.346-61.692 115.346zM437.68 263.682l39.742 123.199 39.742-123.199zM1023.575 612.474c0.223 1.754 0.35 3.782 0.35 5.841 0 13.705-5.644 26.092-14.733 34.963l-102.571 99.67-109.785 104.039c-8.726 8.277-20.545 13.367-33.554 13.367-4.112 0-8.105-0.509-11.92-1.466l0.336 0.072v1.441h-751.699v-1024h1024v766.074zM812.116 707.81l27.012-25.608 15.501-15.058h-42.495zM926.206-55.806h-828.412v828.412h616.51v-154.386c0-0.027 0-0.060 0-0.092 0-27 21.888-48.888 48.888-48.888 0.007 0 0.013 0 0.020 0h162.995z"/>
<glyph unicode="" glyph-name="tel_personne_autorise" d="M512.001 870.4c-69.768 0-127.956-24.263-177.884-74.191-49.027-49.027-72.856-107.214-72.856-177.884 0-69.785 23.829-127.539 72.856-176.549 49.911-49.928 108.099-74.191 177.884-74.191s127.339 24.196 176.315 73.957c50.245 49.46 74.424 107.131 74.424 176.782 0 70.519-24.18 128.64-73.957 177.65-49.477 50.228-107.147 74.424-176.782 74.424zM952.172 124.222c-4.985 41.020-12.888 77.868-23.743 113.428l1.215-4.628c-10.997 34.459-24.63 64.696-40.266 88.959-14.21 22.635-33.45 40.886-56.232 53.531l-0.788 0.401-1.268 0.734c-5.443 3.348-11.783 6.556-18.391 9.244l-0.883 0.317v-539.808h26.532c31.572 0 57.47 14 81.533 44.054 26.015 32.54 38.664 70.519 38.664 116.108 0.004 1.010 0.006 2.207 0.006 3.404 0 40.255-2.318 79.968-6.827 119.014l0.447-4.758zM133.105 321.68c-15.319-23.746-28.418-53.682-38.747-88.725-9.659-30.949-17.563-67.798-22.213-105.654l-0.315-3.146c-4.063-34.203-6.381-73.819-6.381-113.977 0-1.271 0.002-2.542 0.007-3.813l-0.001 0.196c0-45.606 12.649-83.569 38.681-116.108 24.046-30.037 49.944-44.054 81.516-44.054h27.634v540.659c-8.6-3.289-15.899-6.863-22.824-10.997l0.664 0.367c-23.702-13.629-43.187-32.068-57.628-54.111l-0.393-0.64zM328.661 345.192v-498.792h367.782v500.027c-55.434-30.904-117.126-46.523-184.442-46.523-66.965 0.017-128.29 15.219-183.34 45.289z"/>
<glyph unicode="" glyph-name="tel_urgence" horiz-adv-x="975" d="M805.685 70.556q-11.65 6.28-32.783 17.977t-39.126 21.149q-16.909 9.514-31.715 19.029-3.14 1.036-15.857 10.582c-5.928 4.112-12.843 8.32-20.003 12.129l-1.146 0.557c-4.911 2.59-10.72 4.143-16.884 4.223h-0.025q-12.686 0-30.663-16.909c-11.735-11.745-22.806-24.159-33.148-37.178l-0.687-0.896c-10.114-13.675-20.519-25.753-31.741-37.016l0.010 0.010q-16.909-17.993-27.523-17.977c-5.017 0.272-9.701 1.401-14.006 3.242l0.269-0.102q-8.478 3.14-12.686 5.291t-14.806 8.463q-9.514 6.28-11.634 7.395-82.475 45.453-141.681 104.675-59.206 60.258-105.727 142.749c-2.408 3.294-4.86 7.088-7.097 11.020l-0.313 0.598q-6.28 10.551-8.447 14.806c-1.595 3.277-3.043 7.144-4.13 11.16l-0.109 0.474c-1.739 4.037-2.868 8.721-3.136 13.633l-0.005 0.105q0 11.634 16.925 28.543c11.466 11.395 23.914 21.83 37.197 31.158l0.908 0.604c13.793 10.247 25.911 21.359 36.794 33.592l0.212 0.242q16.909 17.977 16.925 29.595c-0.154 6.563-1.701 12.728-4.355 18.261l0.116-0.268c-4.34 8.28-8.549 15.19-13.135 21.82l0.449-0.687c-3.571 5.654-7.052 10.483-10.792 15.093l0.226-0.287q-9.514 15.873-19.045 32.783t-21.18 38.058-17.977 32.783q-21.18 42.281-31.715 46.52c-2.842 1.397-7.065 2.104-12.702 2.104q-16.909 0-43.349-6.28t-41.229-12.686q-30.679-12.749-64.498-74.059-30.663-57.103-30.663-113.153c0-0.033 0-0.071 0-0.11 0-11.145 0.77-22.111 2.261-32.846l-0.141 1.241c1.907-13.445 4.49-25.239 7.851-36.701l-0.456 1.814q5.275-19.029 8.463-28.559 4.223-9.42 12.686-33.819 9.514-24.351 11.634-29.611 21.117-59.238 49.692-105.727 47.572-77.199 131.115-159.658 82.459-83.542 159.642-131.115 46.536-29.611 105.743-50.744 6.28-2.12 30.663-10.582 24.304-9.514 32.767-12.686 9.546-3.14 28.559-8.463c9.605-2.874 21.397-5.456 33.455-7.223l1.432-0.172c9.703-1.35 20.913-2.12 32.304-2.12 0.168 0 0.337 0 0.505 0.001h-0.026q54.952 0 112.070 30.663 61.232 33.866 74.012 64.498 6.28 14.79 12.686 41.245t6.28 42.281q0 8.463-2.104 12.686-3.109 11.634-45.406 32.783zM942.358 837.429q-33.018 32.971-78.832 32.971h-370.657q-45.861 0-78.848-32.971-32.359-32.359-32.343-78.173v-371.316q0-45.83 32.343-78.173 32.971-32.971 78.848-32.971h370.657q45.83 0 78.848 32.971 32.343 32.343 32.343 78.173v371.269q-0.016 45.83-32.359 78.22zM918.21 501.533h-167.995v-168.089h-144.036v167.995h-167.995v144.115h167.995v167.995h144.020v-167.995h167.995z"/>
<glyph unicode="" glyph-name="lsu" d="M0 645.672v-574.545h1024v574.545zM310.101 186.054h-232.889v351.137h80.096v-278.134h152.781zM589.259 211.335c-23.684-18.399-55.965-28.134-93.454-28.134-57.58 0-95.895 13.936-128.105 46.591l-5.009 5.066 52.696 52.696 5.081-5.082c17.686-17.65 42.488-26.231 75.823-26.231 24.112 0 52.893 6.075 52.893 34.922 0 9.725-2.675 17.16-8.212 22.748-5.081 4.686-10.131 7.164-26.267 9.427h-0.099l-40.201 6.152c-30.69 4.435-52.697 13.879-69.178 29.859-17.467 16.931-26.304 40.952-26.304 71.369 0 31.978 11.667 59.233 33.736 78.978 22.282 19.876 53.672 30.36 90.761 30.36 49.178 0 84.262-12.729 113.778-41.278l5.263-5.088-51.834-51.26-5.082 4.866c-19.050 18.618-43.069 21.133-64.043 21.133-27.795 0-44.428-13.233-44.428-35.405 0-8.314 2.292-14.31 7.182-18.871 6.122-5.669 15.142-9.352 26.807-10.899h0.154l40.164-6.152c31.776-4.435 52.194-12.905 68.211-28.377 18.772-17.255 28.278-42.857 28.278-76.11 0-33.486-13.333-61.588-38.585-81.244zM942.078 308.647c0-72.674-55.138-125.413-131.085-125.413s-131.115 52.739-131.115 125.413v228.544h80.096v-226.174c0-34.31 19.079-54.779 51.008-54.779 32.228 0 51.475 20.485 51.475 54.779v226.174h79.629z"/>
<glyph unicode="" glyph-name="etiquette" d="M870.944 771.904h-717.889c-69.439-0.522-126.348-56.909-126.348-126.348v-574.311c0-69.962 56.909-126.348 126.348-126.348h580.054c9.398 0 18.796 4.177 25.583 10.964l229.202 244.343c5.743 6.265 9.398 15.141 9.398 23.495v421.858c0 69.439-56.387 125.826-126.348 126.348zM698.651 14.335h-545.596c-31.326 0-56.909 25.583-56.909 56.909v574.311c0 31.326 25.583 56.909 56.909 56.909h718.411c31.326 0 56.909-25.583 56.909-56.909v-386.355h-102.854c-69.439 0-126.348-56.909-126.348-126.348v-118.517zM286.191 478.483h435.432v-72.050h-435.432v72.050zM286.191 261.289h389.487c10.442 22.972 26.105 41.768 45.945 54.299v17.751h-435.432v-72.050z"/>
<glyph unicode="" glyph-name="observation" d="M991.256-83.090c-7.091 0-14.192 2.363-20.158 6.887l-159.075 123.811h-723.081c-48.945 0-88.941 39.896-88.941 88.941v574.402c0 48.945 39.998 88.941 88.941 88.941h802.571c48.945 0 88.941-39.998 88.941-88.941v-570.6l42.679-183.347c3.182-13.572-2.566-27.455-14.192-34.853-5.345-3.603-11.511-5.244-17.687-5.244zM88.936 734.395c-12.952 0-23.543-10.49-23.543-23.647v-574.298c0-12.952 10.49-23.647 23.543-23.647h734.289c7.305 0 14.393-2.463 20.158-6.887l95.224-74.033-22.621 97.168c-0.52 2.463-0.821 4.939-0.821 7.406v574.503c0 12.952-10.49 23.647-23.543 23.647l-802.671-0.201zM756.283 539.838c-3.603 1.742-7.305 2.782-11.211 2.782-9.568 0-18.297-5.345-22.621-13.99l-64.579-129.157-64.579 129.157c-4.004 7.919-12.752 12.952-22.621 12.952s-18.616-4.939-22.621-12.952l-64.579-129.157-64.579 129.157c-4.004 7.919-12.752 12.952-22.621 12.952s-18.616-4.939-22.621-12.952l-64.579-129.157-64.579 129.157c-4.424 8.637-12.952 13.99-22.621 13.99-4.004 0-7.708-0.922-11.211-2.782-12.445-6.266-17.477-21.495-11.311-33.932l87.199-174.299c4.004-7.919 12.752-12.952 22.621-12.952s18.616 4.939 22.621 12.952l64.579 129.157 64.579-129.157c4.004-7.919 12.752-12.952 22.621-12.952s18.616 4.939 22.621 12.952l64.479 129.157 64.579-129.157c4.424-8.637 12.952-13.99 22.621-13.99s18.197 5.345 22.621 13.99l87.199 174.299c6.066 12.445 1.022 27.666-11.41 33.932v0z"/>
<glyph unicode="" glyph-name="Defaut_de_carnet" d="M293.813 638.592h343.034v-85.058h-343.034v85.058zM293.813 479.283h343.034v-85.058h-343.034v85.058zM889.92 123.039l84.558 84.558c23.316 23.316 23.316 61.242 0 84.558s-61.242 23.316-84.558 0l-84.558-84.558-84.558 84.758c-23.316 23.316-61.242 23.316-84.558 0s-23.316-61.242 0-84.558l84.558-84.558-84.558-84.558c-23.316-23.316-23.316-61.242 0-84.558s61.242-23.316 84.558 0l84.558 84.558 84.558-84.558c23.316-23.316 61.242-23.316 84.558 0s23.316 61.242 0 84.558l-84.558 84.358zM113.69-71.894v860.688h599.41v-248.87h87.66v-137.094h81.756v137.094h45.231v54.637c0 0 0 0 0 0v275.889h-821.462c-40.928 0-74.251-33.323-74.251-74.251v-875.599c0-40.928 33.323-74.251 74.251-74.251h490.635v81.656h-483.23z"/>
<glyph unicode="" glyph-name="incident" d="M694.103-107.956c0-12.744-3.585-23.298-10.952-31.661-7.367-9.359-15.931-13.939-25.887-13.939h-290.925c-9.956 0-18.518 4.58-25.887 13.939-7.367 8.562-10.952 19.116-10.952 31.661v93.988c0 12.744 3.585 23.298 10.952 31.661 7.367 9.359 15.931 13.939 25.887 13.939h35.843v279.176h-35.843c-9.956 0-18.518 4.58-25.887 13.939s-10.952 20.311-10.952 33.055v92.594c0 12.744 3.585 23.696 10.952 33.055s15.931 13.939 25.887 13.939h218.641c9.956 0 18.518-4.58 25.887-13.939 6.571-9.359 9.956-20.311 9.956-33.055v-418.764h36.839c9.956 0 18.518-4.58 25.887-13.939 7.367-8.562 10.952-19.116 10.952-31.661v-93.988zM589.96 683.774c0-12.744-3.585-23.696-10.952-33.055-8.164-9.359-17.523-13.939-28.476-13.939h-161.691c-10.952 0-20.51 4.58-28.476 13.939-8.164 9.359-12.147 20.311-12.147 33.055v139.588c0 12.744 3.983 23.696 12.147 33.055 7.965 9.359 17.523 13.939 28.476 13.939h161.492c10.952 0 20.51-4.58 28.476-13.939 7.367-9.359 10.952-20.311 10.952-33.055v-139.588z"/>
<glyph unicode="" glyph-name="recap_vs_programmation" d="M512.002 693.327c-35.935 0-65.264-29.229-65.264-65.264v-243.238c0-35.935 29.229-65.264 65.264-65.264s65.264 29.229 65.264 65.264v243.238c0 35.935-29.229 65.264-65.264 65.264zM512.002 284.828c-35.935 0-65.064-29.229-65.064-65.064 0-35.935 29.229-65.064 65.064-65.064 35.935 0 65.064 29.229 65.064 65.064 0.1 35.935-29.128 65.064-65.064 65.064zM512.002-153.6c0 0 0 0 0 0-13.513 0-26.226 6.206-34.634 16.716l-262.957 331.424c-13.213 14.414-25.425 29.929-36.436 46.045 0 0 0 0.1-0.1 0.1-45.344 66.865-69.368 145.142-69.368 226.221 0 54.453 10.71 107.305 31.731 157.053 20.32 48.047 49.448 91.189 86.484 128.225s80.178 66.165 128.225 86.484c49.749 21.021 102.6 31.731 157.053 31.731s107.305-10.71 157.053-31.731c48.047-20.32 91.189-49.448 128.225-86.484s66.165-80.178 86.484-128.225c21.021-49.749 31.731-102.6 31.731-157.053 0-79.478-23.022-156.152-66.565-222.117-1.301-2.402-2.703-4.604-4.404-6.807l-1.101-1.401c-9.709-14.014-20.42-27.427-31.831-40.039l-264.959-333.526c-8.408-10.51-21.121-16.616-34.634-16.616zM251.047 290.233c8.809-13.013 18.718-25.425 29.329-36.936 0.701-0.801 1.501-1.602 2.102-2.502l229.424-289.182 231.226 291.084c0.601 0.801 1.301 1.501 1.902 2.302 9.509 10.41 18.318 21.621 26.326 33.232 0.3 0.4 0.5 0.701 0.801 1.101 0.2 0.4 0.5 0.701 0.701 1.101 35.435 52.251 54.153 113.311 54.153 176.673 0 173.77-141.338 315.208-315.208 315.208-173.77 0-315.208-141.338-315.208-315.208 0-63.362 18.718-124.421 54.153-176.673 0.3-0.1 0.3-0.1 0.3-0.2z"/>
</font>
</defs>
</svg>
